<?xml version="1.0" encoding="UTF-8" standalone="no"?>
<!DOCTYPE svg PUBLIC "-//W3C//DTD SVG 1.1//EN" "http://www.w3.org/Graphics/SVG/1.1/DTD/svg11.dtd">
<svg width="100%" height="100%" viewBox="0 0 1452 1336" version="1.1" xmlns="http://www.w3.org/2000/svg" xmlns:xlink="http://www.w3.org/1999/xlink" xml:space="preserve" style="fill-rule:evenodd;clip-rule:evenodd;stroke-linecap:round;stroke-linejoin:round;stroke-miterlimit:1.41421;">
    <g id="Layer1">
        <rect id="Duschsystem" x="-233.242" y="-4647" width="1920" height="12239.8" style="fill:none;"/>
        <g>
            <g>
                <g transform="matrix(12.8827,0,0,13.3755,-7333.04,-900.361)">
                    <g transform="matrix(1.03825,0,0,1,-22.4265,0)">
                        <text x="586.264px" y="118.296px" style="font-family:'FuturaPT-Book', 'Futura PT', sans-serif;font-size:1.271px;fill:none;">Mit hohem Jojoba­anteil für</text>
                    </g>
                    <g transform="matrix(1.03825,0,0,1,-22.4265,0)">
                        <text x="586.264px" y="120.09px" style="font-family:'FuturaPT-Book', 'Futura PT', sans-serif;font-size:1.271px;fill:none;">die hoch­wertige Pﬂege von Kopf bis Fuß.</text>
                    </g>
                    <g transform="matrix(1.03825,0,0,1,-22.4265,0)">
                        <text x="586.264px" y="118.296px" style="font-family:'FuturaPT-Book', 'Futura PT', sans-serif;font-size:1.271px;fill:#3f3f3f;fill-opacity:0.8;">Mit hohem Jojoba­anteil für</text>
                    </g>
                    <g transform="matrix(1.03825,0,0,1,-22.4265,0)">
                        <text x="586.264px" y="120.09px" style="font-family:'FuturaPT-Book', 'Futura PT', sans-serif;font-size:1.271px;fill:#3f3f3f;fill-opacity:0.8;">die hoch­wertige Pﬂege von Kopf bis Fuß.</text>
                    </g>
                </g>
                <path d="M659.455,496.898c0,0 -51.119,0 -75.598,0c-3.388,0 -6.637,1.345 -9.032,3.741c-2.395,2.395 -3.741,5.644 -3.741,9.031c0,24.918 0,79.845 0,105.818c0,3.75 -1.489,7.347 -4.141,9.998c-2.652,2.652 -6.248,4.142 -9.998,4.142c-47.159,0 -196.101,0 -196.101,0" style="fill:none;stroke:#cdac9f;stroke-width:0.95px;"/>
                <g transform="matrix(1,0,0,1,-2416.05,-4288.14)">
                    <text x="2633.88px" y="4928.69px" style="font-family:'FuturaPT-Medium', 'Futura PT', sans-serif;font-weight:450;font-size:26.788px;fill:none;">Handdusche</text>
                    <text x="2633.88px" y="4928.69px" style="font-family:'FuturaPT-Medium', 'Futura PT', sans-serif;font-weight:450;font-size:26.788px;fill:#00335a;">Handdusche</text>
                </g>
                <g>
                    <rect x="220.345" y="732.51" width="301.193" height="37.57" style="fill:#fff;fill-opacity:0;stroke:#93d9f8;stroke-width:1px;stroke-linecap:butt;"/>
                    <text x="263.597px" y="756.735px" style="font-family:'FuturaPT-Heavy', 'Futura PT', sans-serif;font-weight:600;font-size:14px;fill:#001a67;">M<tspan x="279.081px 289.189px 302.349px 313.927px 320.269px 333.289px 344.685px 354.793px 366.371px 372.713px 384.109px 397.129px 408.525px 419.921px 429.273px 439.381px 447.445px 459.177px 471.735px 479.099px " y="756.735px 756.735px 756.735px 756.735px 756.735px 756.735px 756.735px 756.735px 756.735px 756.735px 756.735px 756.735px 756.735px 756.735px 756.735px 756.735px 756.735px 756.735px 756.735px 756.735px ">EHR ÜBER BUBBLE-RAIN</tspan></text>
                </g>
            </g>
            <g>
                <g transform="matrix(12.8827,0,0,13.3755,-7335.07,-1206.86)">
                    <g transform="matrix(1.03825,0,0,1,-22.4265,0)">
                        <text x="586.264px" y="118.296px" style="font-family:'FuturaPT-Book', 'Futura PT', sans-serif;font-size:1.271px;fill:none;">Mit hohem Jojoba­anteil für</text>
                    </g>
                    <g transform="matrix(1.03825,0,0,1,-22.4265,0)">
                        <text x="586.264px" y="120.09px" style="font-family:'FuturaPT-Book', 'Futura PT', sans-serif;font-size:1.271px;fill:none;">die hoch­wertige Pﬂege von Kopf bis Fuß.</text>
                    </g>
                    <g transform="matrix(1.03825,0,0,1,-22.4265,0)">
                        <text x="586.264px" y="118.296px" style="font-family:'FuturaPT-Book', 'Futura PT', sans-serif;font-size:1.271px;fill:#3f3f3f;fill-opacity:0.8;">Mit hohem Jojoba­anteil für</text>
                    </g>
                    <g transform="matrix(1.03825,0,0,1,-22.4265,0)">
                        <text x="586.264px" y="120.09px" style="font-family:'FuturaPT-Book', 'Futura PT', sans-serif;font-size:1.271px;fill:#3f3f3f;fill-opacity:0.8;">die hoch­wertige Pﬂege von Kopf bis Fuß.</text>
                    </g>
                </g>
                <path d="M353.45,324.885l217.634,0" style="fill:none;stroke:#cdac9f;stroke-width:0.95px;"/>
                <g transform="matrix(1,0,0,1,-2417.87,-4596.79)">
                    <text x="2633.88px" y="4928.69px" style="font-family:'FuturaPT-Medium', 'Futura PT', sans-serif;font-weight:450;font-size:26.788px;fill:none;">Kopfdusche</text>
                    <text x="2633.88px" y="4928.69px" style="font-family:'FuturaPT-Medium', 'Futura PT', sans-serif;font-weight:450;font-size:26.788px;fill:#00335a;">Kopfdusche</text>
                </g>
                <g>
                    <text x="263.597px" y="446.875px" style="font-family:'FuturaPT-Heavy', 'Futura PT', sans-serif;font-weight:600;font-size:14px;fill:#001a67;">M<tspan x="279.081px 289.189px 302.349px 313.927px 320.269px 333.289px 344.685px 354.793px 366.371px 372.713px 384.109px 397.129px 408.525px 419.921px 429.273px 439.381px 447.445px 459.177px 471.735px 479.099px " y="446.875px 446.875px 446.875px 446.875px 446.875px 446.875px 446.875px 446.875px 446.875px 446.875px 446.875px 446.875px 446.875px 446.875px 446.875px 446.875px 446.875px 446.875px 446.875px 446.875px ">EHR ÜBER BUBBLE-RAIN</tspan></text>
                    <path d="M520.205,461.063l-301.89,0l0,-37.569l301.89,0l0,37.569Zm-300.891,-36.57l0,35.57l299.891,0l0,-35.57l-299.891,0Z" style="fill:#93d9f8;"/>
                </g>
            </g>
            <g>
                <g transform="matrix(12.8827,0,0,13.3755,-6540.75,-834.69)">
                    <g transform="matrix(1.03825,0,0,1,-22.4265,0)">
                        <text x="586.264px" y="118.296px" style="font-family:'FuturaPT-Book', 'Futura PT', sans-serif;font-size:1.271px;fill:none;">Mit hohem Jojoba­anteil für</text>
                    </g>
                    <g transform="matrix(1.03825,0,0,1,-22.4265,0)">
                        <text x="586.264px" y="120.09px" style="font-family:'FuturaPT-Book', 'Futura PT', sans-serif;font-size:1.271px;fill:none;">die hoch­wertige Pﬂege von Kopf bis Fuß.</text>
                    </g>
                    <g transform="matrix(1.03825,0,0,1,-22.4265,0)">
                        <text x="586.264px" y="118.296px" style="font-family:'FuturaPT-Book', 'Futura PT', sans-serif;font-size:1.271px;fill:#3f3f3f;fill-opacity:0.8;">Mit hohem Jojoba­anteil für</text>
                    </g>
                    <g transform="matrix(1.03825,0,0,1,-22.4265,0)">
                        <text x="586.264px" y="120.09px" style="font-family:'FuturaPT-Book', 'Futura PT', sans-serif;font-size:1.271px;fill:#3f3f3f;fill-opacity:0.8;">die hoch­wertige Pﬂege von Kopf bis Fuß.</text>
                    </g>
                </g>
                <path d="M992.564,699.516c0,0 -24.495,0 -39.04,0c-2.787,0 -5.46,1.107 -7.431,3.078c-1.971,1.97 -3.078,4.643 -3.078,7.43c0,34.161 0,141.829 0,175.99c0,5.804 -4.705,10.509 -10.508,10.509c-21.992,0 -70.844,0 -70.844,0" style="fill:none;stroke:#cdac9f;stroke-width:0.95px;"/>
                <g transform="matrix(1,0,0,1,-1623.55,-4219.58)">
                    <text x="2633.88px" y="4928.69px" style="font-family:'FuturaPT-Medium', 'Futura PT', sans-serif;font-weight:450;font-size:26.788px;fill:none;">Umschalter</text>
                    <text x="2633.88px" y="4928.69px" style="font-family:'FuturaPT-Medium', 'Futura PT', sans-serif;font-weight:450;font-size:26.788px;fill:#00335a;">Umschalter</text>
                </g>
            </g>
            <g>
                <g transform="matrix(12.8827,0,0,13.3755,-6540.75,-635.274)">
                    <g transform="matrix(1.03825,0,0,1,-22.4265,0)">
                        <text x="586.264px" y="118.296px" style="font-family:'FuturaPT-Book', 'Futura PT', sans-serif;font-size:1.271px;fill:none;">Mit hohem Jojoba­anteil für</text>
                    </g>
                    <g transform="matrix(1.03825,0,0,1,-22.4265,0)">
                        <text x="586.264px" y="120.09px" style="font-family:'FuturaPT-Book', 'Futura PT', sans-serif;font-size:1.271px;fill:none;">die hoch­wertige Pﬂege von Kopf bis Fuß.</text>
                    </g>
                    <g transform="matrix(1.03825,0,0,1,-22.4265,0)">
                        <text x="586.264px" y="118.296px" style="font-family:'FuturaPT-Book', 'Futura PT', sans-serif;font-size:1.271px;fill:#3f3f3f;fill-opacity:0.8;">Mit hohem Jojoba­anteil für</text>
                    </g>
                    <g transform="matrix(1.03825,0,0,1,-22.4265,0)">
                        <text x="586.264px" y="120.09px" style="font-family:'FuturaPT-Book', 'Futura PT', sans-serif;font-size:1.271px;fill:#3f3f3f;fill-opacity:0.8;">die hoch­wertige Pﬂege von Kopf bis Fuß.</text>
                    </g>
                </g>
                <path d="M992.564,952.93l-130.901,0" style="fill:none;stroke:#cdac9f;stroke-width:0.95px;"/>
                <g transform="matrix(1,0,0,1,-1623.55,-4019.77)">
                    <text x="2633.88px" y="4928.69px" style="font-family:'FuturaPT-Medium', 'Futura PT', sans-serif;font-weight:450;font-size:26.788px;fill:none;">Elixator</text>
                    <text x="2633.88px" y="4928.69px" style="font-family:'FuturaPT-Medium', 'Futura PT', sans-serif;font-weight:450;font-size:26.788px;fill:#00335a;">Elixator</text>
                </g>
                <g>
                    <text x="1051.03px" y="1058.55px" style="font-family:'FuturaPT-Heavy', 'Futura PT', sans-serif;font-weight:600;font-size:14px;fill:#001a67;">M<tspan x="1066.52px 1076.62px 1089.78px 1101.36px 1107.7px 1120.72px 1132.12px 1142.23px 1153.81px 1160.15px 1172.82px 1182.92px 1197.15px 1203.49px 1213.6px 1222.95px 1230.32px 1243px 1254.97px 1264.21px 1278.63px " y="1058.55px 1058.55px 1058.55px 1058.55px 1058.55px 1058.55px 1058.55px 1058.55px 1058.55px 1058.55px 1058.55px 1058.55px 1058.55px 1058.55px 1058.55px 1058.55px 1058.55px 1058.55px 1058.55px 1058.55px 1058.55px ">EHR ÜBER DEN ELIXATOR</tspan></text>
                    <path d="M1316.83,1072.74l-304.193,0l0,-37.569l304.193,0l0,37.569Zm-303.193,-36.569l0,35.57l302.193,0l0,-35.57l-302.193,0Z" style="fill:#93d9f8;"/>
                </g>
                <g>
                    <text x="1142.05px" y="1004.67px" style="font-family:'FuturaPT-Heavy', 'Futura PT', sans-serif;font-weight:600;font-size:14px;fill:#001a67;">V<tspan x="1154.62px 1161.99px 1174.66px 1184.77px " y="1004.67px 1004.67px 1004.67px 1004.67px ">IDEO</tspan></text>
                    <path d="M1316.83,1018.85l-304.193,0l0,-37.57l304.193,0l0,37.57Zm-303.193,-36.57l0,35.57l302.193,0l0,-35.57l-302.193,0Z" style="fill:#93d9f8;"/>
                </g>
            </g>
        </g>
        <g>
            <g>
                <g>
                    <g id="_34">
                        <clipPath id="_clip1">
                            <rect x="-3.892" y="-1180.65" width="1461" height="1010.14"/>
                        </clipPath>
                        <g clip-path="url(#_clip1)">
                        </g>
                    </g>
                </g>
            </g>
        </g>
        <g>
            <g>
                <g>
                    <g id="_341">
                        <clipPath id="_clip2">
                            <rect x="2457.57" y="6526.51" width="1461" height="1010.14"/>
                        </clipPath>
                        <g clip-path="url(#_clip2)">
                        </g>
                    </g>
                </g>
            </g>
        </g>
    </g>
</svg>
