<?xml version="1.0" encoding="UTF-8" standalone="no"?><!DOCTYPE svg PUBLIC "-//W3C//DTD SVG 1.1//EN" "http://www.w3.org/Graphics/SVG/1.1/DTD/svg11.dtd"><svg width="100%" height="100%" viewBox="0 0 36 36" version="1.1" xmlns="http://www.w3.org/2000/svg" xmlns:xlink="http://www.w3.org/1999/xlink" xml:space="preserve" style="fill-rule:evenodd;clip-rule:evenodd;stroke-linejoin:round;stroke-miterlimit:1.41421;"><circle cx="18.175" cy="17.87" r="16.733" style="fill:#ebebeb;"/><path d="M18.391,1.138l0.215,0.004l0.215,0.007l0.214,0.009l0.214,0.012l0.212,0.015l0.212,0.018l0.212,0.02l0.21,0.023l0.21,0.025l0.209,0.028l0.208,0.03l0.207,0.033l0.206,0.036l0.206,0.038l0.204,0.041l0.204,0.043l0.203,0.045l0.202,0.048l0.201,0.051l0.199,0.053l0.199,0.055l0.198,0.057l0.197,0.06l0.196,0.063l0.195,0.064l0.194,0.067l0.193,0.07l0.191,0.071l0.191,0.074l0.189,0.076l0.188,0.078l0.187,0.081l0.186,0.083l0.185,0.085l0.184,0.087l0.182,0.089l0.181,0.091l0.18,0.094l0.178,0.095l0.177,0.098l0.176,0.1l0.175,0.102l0.173,0.103l0.172,0.106l0.17,0.108l0.169,0.11l0.168,0.112l0.166,0.114l0.165,0.115l0.163,0.118l0.162,0.12l0.16,0.121l0.159,0.123l0.157,0.126l0.156,0.127l0.154,0.128l0.153,0.131l0.151,0.132l0.149,0.135l0.148,0.136l0.146,0.137l0.145,0.14l0.143,0.141l0.141,0.143l0.139,0.144l0.138,0.146l0.136,0.148l0.134,0.15l0.132,0.151l0.131,0.152l0.129,0.154l0.127,0.156l0.125,0.157l0.123,0.159l0.122,0.161l0.119,0.161l0.118,0.164l0.116,0.165l0.114,0.166l0.111,0.167l0.11,0.169l0.108,0.171l0.106,0.172l0.104,0.173l0.102,0.174l0.099,0.176l0.098,0.177l0.096,0.179l0.093,0.18l0.092,0.181l0.089,0.182l0.087,0.183l0.085,0.185l0.083,0.186l0.08,0.187l0.078,0.188l0.077,0.19l0.073,0.19l0.072,0.192l0.069,0.192l0.067,0.194l0.065,0.195l0.062,0.196l0.06,0.197l0.058,0.198l0.055,0.199l0.053,0.2l0.05,0.201l0.048,0.202l0.046,0.202l0.043,0.204l0.04,0.205l0.038,0.205l0.036,0.207l0.033,0.207l0.03,0.208l0.028,0.209l0.026,0.209l0.022,0.211l0.021,0.211l0.017,0.212l0.015,0.213l0.012,0.213l0.01,0.214l0.006,0.215l0.005,0.216l0.001,0.216l-0.001,0.216l-0.005,0.215l-0.006,0.215l-0.01,0.214l-0.012,0.214l-0.015,0.212l-0.017,0.212l-0.021,0.212l-0.022,0.21l-0.026,0.21l-0.028,0.209l-0.03,0.208l-0.033,0.207l-0.036,0.206l-0.038,0.206l-0.04,0.204l-0.043,0.204l-0.046,0.203l-0.048,0.202l-0.05,0.201l-0.053,0.2l-0.055,0.198l-0.058,0.198l-0.06,0.197l-0.062,0.196l-0.065,0.195l-0.067,0.194l-0.069,0.193l-0.072,0.191l-0.073,0.191l-0.077,0.189l-0.078,0.188l-0.08,0.188l-0.083,0.185l-0.085,0.185l-0.087,0.184l-0.089,0.182l-0.092,0.181l-0.093,0.18l-0.096,0.178l-0.098,0.177l-0.099,0.176l-0.102,0.175l-0.104,0.173l-0.106,0.172l-0.108,0.17l-0.11,0.169l-0.111,0.168l-0.114,0.166l-0.116,0.165l-0.118,0.163l-0.119,0.162l-0.122,0.16l-0.123,0.159l-0.125,0.157l-0.127,0.156l-0.129,0.154l-0.131,0.153l-0.132,0.151l-0.134,0.149l-0.136,0.148l-0.138,0.146l-0.139,0.145l-0.141,0.143l-0.143,0.141l-0.145,0.139l-0.146,0.138l-0.148,0.136l-0.149,0.134l-0.151,0.132l-0.153,0.131l-0.154,0.129l-0.156,0.127l-0.157,0.125l-0.159,0.123l-0.16,0.122l-0.162,0.119l-0.163,0.118l-0.165,0.116l-0.166,0.114l-0.168,0.111l-0.169,0.11l-0.17,0.108l-0.172,0.106l-0.173,0.104l-0.175,0.102l-0.176,0.099l-0.177,0.098l-0.178,0.096l-0.18,0.093l-0.181,0.092l-0.182,0.089l-0.184,0.087l-0.185,0.085l-0.186,0.083l-0.187,0.08l-0.188,0.078l-0.189,0.077l-0.191,0.073l-0.191,0.072l-0.193,0.069l-0.194,0.067l-0.195,0.065l-0.196,0.062l-0.197,0.06l-0.198,0.058l-0.199,0.055l-0.199,0.053l-0.201,0.05l-0.202,0.048l-0.203,0.046l-0.204,0.043l-0.204,0.04l-0.206,0.038l-0.206,0.036l-0.207,0.033l-0.208,0.031l-0.209,0.027l-0.21,0.026l-0.21,0.023l-0.212,0.02l-0.212,0.017l-0.212,0.015l-0.214,0.012l-0.214,0.01l-0.215,0.007l-0.215,0.004l-0.216,0.001l-0.216,-0.001l-0.216,-0.004l-0.215,-0.007l-0.214,-0.01l-0.213,-0.012l-0.213,-0.015l-0.212,-0.017l-0.211,-0.02l-0.211,-0.023l-0.209,-0.026l-0.209,-0.027l-0.208,-0.031l-0.207,-0.033l-0.207,-0.036l-0.205,-0.038l-0.205,-0.04l-0.204,-0.043l-0.202,-0.046l-0.202,-0.048l-0.201,-0.05l-0.2,-0.053l-0.199,-0.055l-0.198,-0.058l-0.197,-0.06l-0.196,-0.062l-0.195,-0.065l-0.194,-0.067l-0.192,-0.069l-0.192,-0.072l-0.19,-0.073l-0.19,-0.077l-0.188,-0.078l-0.187,-0.08l-0.186,-0.083l-0.185,-0.085l-0.183,-0.087l-0.182,-0.089l-0.181,-0.092l-0.18,-0.093l-0.179,-0.096l-0.177,-0.098l-0.176,-0.099l-0.174,-0.102l-0.173,-0.104l-0.172,-0.106l-0.171,-0.108l-0.169,-0.11l-0.167,-0.111l-0.167,-0.114l-0.164,-0.116l-0.164,-0.118l-0.161,-0.119l-0.161,-0.122l-0.159,-0.123l-0.157,-0.125l-0.156,-0.127l-0.154,-0.129l-0.152,-0.131l-0.151,-0.132l-0.15,-0.134l-0.148,-0.136l-0.146,-0.138l-0.144,-0.139l-0.143,-0.141l-0.141,-0.143l-0.14,-0.145l-0.137,-0.146l-0.136,-0.148l-0.135,-0.149l-0.132,-0.151l-0.131,-0.153l-0.128,-0.154l-0.128,-0.156l-0.125,-0.157l-0.123,-0.159l-0.121,-0.16l-0.12,-0.162l-0.118,-0.163l-0.115,-0.165l-0.114,-0.166l-0.112,-0.168l-0.11,-0.169l-0.108,-0.17l-0.106,-0.172l-0.103,-0.173l-0.102,-0.175l-0.1,-0.176l-0.098,-0.177l-0.095,-0.178l-0.094,-0.18l-0.091,-0.181l-0.089,-0.182l-0.088,-0.184l-0.084,-0.185l-0.083,-0.185l-0.081,-0.188l-0.078,-0.188l-0.076,-0.189l-0.074,-0.191l-0.071,-0.191l-0.07,-0.193l-0.067,-0.194l-0.064,-0.195l-0.063,-0.196l-0.06,-0.197l-0.057,-0.198l-0.056,-0.198l-0.052,-0.2l-0.051,-0.201l-0.048,-0.202l-0.045,-0.203l-0.043,-0.204l-0.041,-0.204l-0.038,-0.206l-0.036,-0.206l-0.033,-0.207l-0.03,-0.208l-0.028,-0.209l-0.025,-0.21l-0.023,-0.21l-0.02,-0.212l-0.018,-0.212l-0.015,-0.212l-0.012,-0.214l-0.009,-0.214l-0.007,-0.215l-0.004,-0.215l-0.002,-0.216l0.002,-0.216l0.004,-0.216l0.007,-0.215l0.009,-0.214l0.012,-0.213l0.015,-0.213l0.018,-0.212l0.02,-0.211l0.023,-0.211l0.025,-0.209l0.028,-0.209l0.03,-0.208l0.033,-0.207l0.036,-0.207l0.038,-0.205l0.041,-0.205l0.043,-0.204l0.045,-0.202l0.048,-0.202l0.051,-0.201l0.052,-0.2l0.056,-0.199l0.057,-0.198l0.06,-0.197l0.063,-0.196l0.064,-0.195l0.067,-0.194l0.07,-0.192l0.071,-0.192l0.074,-0.19l0.076,-0.19l0.078,-0.188l0.081,-0.187l0.083,-0.186l0.084,-0.185l0.088,-0.183l0.089,-0.182l0.091,-0.181l0.094,-0.18l0.095,-0.179l0.098,-0.177l0.1,-0.176l0.102,-0.174l0.103,-0.173l0.106,-0.172l0.108,-0.171l0.11,-0.169l0.112,-0.167l0.114,-0.166l0.115,-0.165l0.118,-0.164l0.12,-0.161l0.121,-0.161l0.123,-0.159l0.125,-0.157l0.128,-0.156l0.128,-0.154l0.131,-0.152l0.132,-0.151l0.135,-0.15l0.136,-0.148l0.137,-0.146l0.14,-0.144l0.141,-0.143l0.143,-0.141l0.144,-0.14l0.146,-0.137l0.148,-0.136l0.15,-0.135l0.151,-0.132l0.152,-0.131l0.154,-0.128l0.156,-0.127l0.157,-0.126l0.159,-0.123l0.161,-0.121l0.161,-0.12l0.164,-0.118l0.164,-0.115l0.167,-0.114l0.167,-0.112l0.169,-0.11l0.171,-0.108l0.172,-0.106l0.173,-0.103l0.174,-0.102l0.176,-0.1l0.177,-0.098l0.179,-0.095l0.18,-0.094l0.181,-0.091l0.182,-0.089l0.183,-0.087l0.185,-0.085l0.186,-0.083l0.187,-0.081l0.188,-0.078l0.19,-0.076l0.19,-0.074l0.192,-0.071l0.192,-0.07l0.194,-0.067l0.195,-0.064l0.196,-0.063l0.197,-0.06l0.198,-0.057l0.199,-0.055l0.2,-0.053l0.201,-0.051l0.202,-0.048l0.202,-0.045l0.204,-0.043l0.205,-0.041l0.205,-0.038l0.207,-0.036l0.207,-0.033l0.208,-0.03l0.209,-0.028l0.209,-0.025l0.211,-0.023l0.211,-0.02l0.212,-0.018l0.213,-0.015l0.213,-0.012l0.214,-0.009l0.215,-0.007l0.216,-0.004l0.216,-0.002l0.216,0.002Zm-0.378,4l-0.169,0.003l-0.163,0.005l-0.163,0.007l-0.167,0.01l-0.161,0.011l-0.16,0.013l-0.159,0.015l-0.162,0.018l-0.16,0.019l-0.157,0.021l-0.158,0.023l-0.158,0.026l-0.157,0.027l-0.156,0.029l-0.155,0.03l-0.155,0.033l-0.157,0.035l-0.153,0.036l-0.147,0.038l-0.154,0.04l-0.154,0.043l-0.149,0.043l-0.146,0.045l-0.151,0.048l-0.151,0.05l-0.148,0.051l-0.142,0.051l-0.142,0.053l-0.146,0.057l-0.148,0.06l-0.149,0.061l-0.137,0.059l-0.136,0.06l-0.144,0.067l-0.14,0.066l-0.136,0.067l-0.135,0.068l-0.14,0.073l-0.14,0.075l-0.131,0.072l-0.131,0.074l-0.136,0.08l-0.131,0.078l-0.126,0.079l-0.137,0.086l-0.132,0.086l-0.125,0.082l-0.12,0.083l-0.128,0.09l-0.132,0.095l-0.114,0.084l-0.119,0.091l-0.128,0.099l-0.118,0.094l-0.127,0.104l-0.115,0.094l-0.108,0.094l-0.116,0.101l-0.119,0.108l-0.115,0.104l-0.103,0.098l-0.116,0.112l-0.11,0.108l-0.099,0.101l-0.115,0.12l-0.108,0.113l-0.096,0.104l-0.102,0.115l-0.101,0.115l-0.1,0.117l-0.101,0.121l-0.099,0.121l-0.096,0.121l-0.089,0.114l-0.094,0.125l-0.094,0.126l-0.084,0.117l-0.089,0.126l-0.09,0.133l-0.089,0.133l-0.078,0.118l-0.076,0.122l-0.091,0.149l-0.077,0.126l-0.073,0.126l-0.079,0.139l-0.077,0.141l-0.071,0.13l-0.066,0.129l-0.074,0.146l-0.065,0.132l-0.069,0.147l-0.069,0.149l-0.061,0.135l-0.059,0.138l-0.057,0.138l-0.056,0.14l-0.06,0.155l-0.053,0.14l-0.051,0.143l-0.054,0.158l-0.049,0.145l-0.046,0.146l-0.045,0.147l-0.042,0.147l-0.046,0.164l-0.04,0.15l-0.037,0.151l-0.037,0.153l-0.034,0.153l-0.033,0.153l-0.03,0.155l-0.03,0.156l-0.026,0.158l-0.026,0.157l-0.023,0.159l-0.022,0.161l-0.017,0.145l-0.017,0.162l-0.017,0.178l-0.014,0.164l-0.011,0.15l-0.009,0.165l-0.008,0.167l-0.004,0.153l-0.003,0.168l-0.001,0.17l0.001,0.169l0.003,0.169l0.004,0.152l0.008,0.167l0.009,0.166l0.011,0.149l0.014,0.164l0.017,0.179l0.017,0.162l0.017,0.145l0.022,0.16l0.023,0.159l0.026,0.158l0.026,0.157l0.03,0.157l0.03,0.154l0.033,0.154l0.034,0.153l0.037,0.153l0.037,0.15l0.04,0.151l0.046,0.163l0.042,0.148l0.045,0.147l0.046,0.145l0.049,0.145l0.054,0.158l0.051,0.143l0.053,0.141l0.06,0.155l0.056,0.14l0.057,0.137l0.059,0.138l0.061,0.136l0.069,0.148l0.069,0.147l0.065,0.132l0.074,0.147l0.066,0.129l0.071,0.129l0.077,0.142l0.079,0.138l0.073,0.127l0.077,0.125l0.091,0.149l0.076,0.122l0.078,0.119l0.089,0.133l0.09,0.132l0.089,0.127l0.084,0.116l0.094,0.127l0.094,0.125l0.089,0.114l0.096,0.12l0.099,0.122l0.099,0.118l0.102,0.119l0.103,0.118l0.1,0.112l0.096,0.104l0.108,0.114l0.115,0.119l0.099,0.101l0.11,0.108l0.116,0.113l0.103,0.097l0.115,0.104l0.119,0.109l0.116,0.101l0.108,0.093l0.115,0.095l0.125,0.102l0.12,0.096l0.13,0.101l0.117,0.089l0.114,0.084l0.132,0.094l0.128,0.091l0.12,0.082l0.125,0.083l0.132,0.086l0.137,0.086l0.126,0.078l0.131,0.079l0.136,0.079l0.131,0.074l0.131,0.073l0.14,0.074l0.14,0.074l0.135,0.068l0.136,0.066l0.14,0.067l0.141,0.065l0.139,0.061l0.141,0.061l0.145,0.06l0.148,0.06l0.146,0.056l0.142,0.054l0.142,0.051l0.148,0.051l0.151,0.049l0.151,0.049l0.146,0.044l0.149,0.043l0.154,0.043l0.154,0.041l0.147,0.037l0.153,0.036l0.157,0.035l0.155,0.033l0.155,0.031l0.156,0.029l0.157,0.027l0.158,0.025l0.158,0.023l0.157,0.021l0.16,0.02l0.162,0.017l0.159,0.015l0.16,0.014l0.161,0.011l0.167,0.009l0.163,0.007l0.163,0.006l0.165,0.003l0.166,0.001l0.165,-0.001l0.165,-0.003l0.164,-0.006l0.163,-0.007l0.167,-0.009l0.16,-0.011l0.161,-0.014l0.158,-0.015l0.163,-0.017l0.16,-0.02l0.156,-0.021l0.159,-0.023l0.158,-0.025l0.157,-0.027l0.156,-0.029l0.155,-0.031l0.155,-0.033l0.157,-0.035l0.153,-0.036l0.147,-0.037l0.154,-0.041l0.154,-0.043l0.149,-0.043l0.146,-0.044l0.151,-0.049l0.151,-0.049l0.147,-0.051l0.142,-0.051l0.143,-0.054l0.146,-0.056l0.148,-0.06l0.145,-0.06l0.141,-0.061l0.139,-0.061l0.14,-0.065l0.141,-0.067l0.136,-0.066l0.135,-0.068l0.139,-0.074l0.14,-0.074l0.132,-0.073l0.13,-0.074l0.136,-0.079l0.132,-0.079l0.126,-0.078l0.136,-0.086l0.125,-0.081l0.131,-0.088l0.129,-0.088l0.121,-0.085l0.123,-0.088l0.121,-0.09l0.126,-0.096l0.122,-0.094l0.121,-0.096l0.117,-0.095l0.121,-0.102l0.118,-0.1l0.107,-0.094l0.12,-0.109l0.114,-0.104l0.103,-0.097l0.117,-0.113l0.11,-0.108l0.099,-0.101l0.115,-0.119l0.108,-0.114l0.095,-0.104l0.101,-0.112l0.103,-0.118l0.102,-0.119l0.098,-0.118l0.1,-0.122l0.096,-0.12l0.088,-0.114l0.095,-0.125l0.094,-0.127l0.083,-0.116l0.089,-0.127l0.091,-0.132l0.089,-0.133l0.077,-0.119l0.077,-0.122l0.084,-0.137l0.082,-0.137l0.081,-0.139l0.072,-0.126l0.071,-0.129l0.076,-0.142l0.074,-0.142l0.068,-0.134l0.064,-0.132l0.07,-0.147l0.062,-0.134l0.066,-0.15l0.06,-0.138l0.057,-0.137l0.062,-0.155l0.055,-0.14l0.052,-0.141l0.051,-0.143l0.055,-0.158l0.048,-0.145l0.046,-0.145l0.045,-0.147l0.043,-0.148l0.045,-0.163l0.041,-0.151l0.037,-0.15l0.037,-0.153l0.034,-0.153l0.033,-0.154l0.03,-0.154l0.029,-0.157l0.027,-0.157l0.026,-0.158l0.023,-0.159l0.021,-0.16l0.018,-0.145l0.017,-0.162l0.017,-0.179l0.014,-0.164l0.01,-0.149l0.009,-0.166l0.008,-0.167l0.005,-0.152l0.003,-0.169l0.001,-0.169l-0.001,-0.17l-0.003,-0.168l-0.005,-0.153l-0.008,-0.167l-0.009,-0.165l-0.01,-0.15l-0.014,-0.164l-0.017,-0.178l-0.017,-0.162l-0.018,-0.145l-0.021,-0.161l-0.023,-0.159l-0.026,-0.157l-0.027,-0.158l-0.029,-0.156l-0.03,-0.155l-0.033,-0.153l-0.034,-0.153l-0.037,-0.153l-0.037,-0.151l-0.041,-0.15l-0.045,-0.164l-0.043,-0.147l-0.045,-0.147l-0.046,-0.146l-0.048,-0.145l-0.055,-0.158l-0.051,-0.143l-0.052,-0.14l-0.055,-0.141l-0.062,-0.154l-0.057,-0.138l-0.06,-0.138l-0.066,-0.149l-0.062,-0.135l-0.07,-0.147l-0.064,-0.132l-0.068,-0.133l-0.074,-0.142l-0.076,-0.143l-0.071,-0.128l-0.072,-0.126l-0.081,-0.139l-0.082,-0.138l-0.084,-0.137l-0.077,-0.122l-0.077,-0.118l-0.089,-0.133l-0.091,-0.133l-0.089,-0.126l-0.083,-0.117l-0.094,-0.126l-0.095,-0.125l-0.088,-0.114l-0.096,-0.121l-0.1,-0.121l-0.1,-0.121l-0.1,-0.117l-0.101,-0.115l-0.103,-0.115l-0.095,-0.104l-0.108,-0.113l-0.115,-0.12l-0.099,-0.101l-0.11,-0.108l-0.117,-0.112l-0.103,-0.098l-0.114,-0.104l-0.12,-0.108l-0.107,-0.094l-0.118,-0.101l-0.121,-0.101l-0.12,-0.097l-0.118,-0.094l-0.119,-0.093l-0.129,-0.097l-0.121,-0.09l-0.123,-0.089l-0.121,-0.085l-0.129,-0.088l-0.131,-0.087l-0.125,-0.081l-0.136,-0.086l-0.126,-0.079l-0.132,-0.078l-0.136,-0.08l-0.13,-0.074l-0.132,-0.072l-0.14,-0.075l-0.139,-0.073l-0.135,-0.068l-0.136,-0.067l-0.141,-0.066l-0.144,-0.067l-0.135,-0.06l-0.138,-0.059l-0.148,-0.061l-0.148,-0.06l-0.146,-0.057l-0.143,-0.053l-0.142,-0.051l-0.147,-0.051l-0.151,-0.05l-0.151,-0.048l-0.146,-0.045l-0.149,-0.043l-0.154,-0.043l-0.154,-0.04l-0.147,-0.038l-0.153,-0.036l-0.157,-0.035l-0.155,-0.033l-0.155,-0.03l-0.156,-0.029l-0.157,-0.027l-0.158,-0.026l-0.159,-0.023l-0.156,-0.021l-0.16,-0.019l-0.163,-0.018l-0.158,-0.015l-0.161,-0.013l-0.16,-0.011l-0.167,-0.01l-0.163,-0.007l-0.164,-0.005l-0.169,-0.003l-0.161,-0.002l-0.162,0.002Z" style="fill:#00bebb;"/><g><clipPath id="_clip1"><rect x="-8468.52" y="7158.31" width="1548.67" height="267.404"/></clipPath><g clip-path="url(#_clip1)"></g></g></svg>