<?xml version="1.0" encoding="UTF-8" standalone="no"?>
<!DOCTYPE svg PUBLIC "-//W3C//DTD SVG 1.1//EN" "http://www.w3.org/Graphics/SVG/1.1/DTD/svg11.dtd">
<svg width="100%" height="100%" viewBox="0 0 1444 456" version="1.1" xmlns="http://www.w3.org/2000/svg" xmlns:xlink="http://www.w3.org/1999/xlink" xml:space="preserve" style="fill-rule:evenodd;clip-rule:evenodd;stroke-linejoin:bevel;stroke-miterlimit:1.5;">
    <path d="M721.455,-1.88c0,0 0,88.567 0,130.375c0,5.668 -2.251,11.104 -6.259,15.112c-4.008,4.007 -9.443,6.259 -15.111,6.259c-49.333,0 -170.696,0 -219.997,0c-11.79,0 -21.353,9.548 -21.371,21.338c-0.056,36.674 -0.165,107.764 -0.165,107.764" style="fill:none;stroke:#00bebb;stroke-width:4px;"/>
    <path d="M721.455,-1.88c0,0 0,88.567 0,130.375c0,11.803 9.568,21.371 21.371,21.371c48.273,0 165.283,0 213.51,0c11.784,0 21.344,9.538 21.371,21.322c0.083,36.67 0.244,107.78 0.244,107.78" style="fill:none;stroke:#00bebb;stroke-width:4px;"/>
    <circle cx="459.562" cy="293.102" r="14.134" style="fill:none;stroke:#00bebb;stroke-width:4px;"/>
    <circle cx="977.857" cy="293.102" r="14.134" style="fill:none;stroke:#00bebb;stroke-width:4px;"/>
    <g transform="matrix(0.730373,0,0,0.730373,-261.782,-25.49)">
        <g transform="matrix(1.08759,0,0,1,-42.3868,0)">
            <text x="483.904px" y="452.238px" style="font-family:'Roboto-Bold', 'Roboto';font-weight:700;font-size:32.86px;fill:none;">I am not par<tspan x="660.697px " y="452.238px ">t</tspan>icularly good at</text>
        </g>
        <g transform="matrix(1.08759,0,0,1,-42.3868,0)">
            <text x="483.904px" y="452.238px" style="font-family:'Roboto-Bold', 'Roboto';font-weight:700;font-size:32.86px;fill:#888;">I am not par<tspan x="660.697px " y="452.238px ">t</tspan>icularly good at</text>
        </g>
    </g>
    <g transform="matrix(0.730373,0,0,0.730373,665.607,-25.49)">
        <g transform="matrix(1.08759,0,0,1,-42.3868,0)">
            <text x="483.904px" y="452.238px" style="font-family:'Roboto-Bold', 'Roboto';font-weight:700;font-size:32.86px;fill:none;">W<tspan x="512.538px " y="452.238px ">a</tspan>nt to become better</text>
        </g>
        <g transform="matrix(1.08759,0,0,1,-42.3868,0)">
            <text x="483.904px" y="452.238px" style="font-family:'Roboto-Bold', 'Roboto';font-weight:700;font-size:32.86px;fill:#888;">W<tspan x="512.538px " y="452.238px ">a</tspan>nt to become better</text>
        </g>
    </g>
    <g transform="matrix(1,0,0,1,-12297.9,-4315.59)">
        <text x="12334.4px" y="4664.98px" style="font-family:'Roboto-Light', 'Roboto';font-weight:300;font-size:20px;fill:none;">Drawing Complex 3D Objects Nice &amp; Quickly</text>
        <g transform="matrix(1.08759,0,0,1,-1108.24,0)">
            <text x="12652px" y="4697.02px" style="font-family:'Roboto-Light', 'Roboto';font-weight:300;font-size:20px;fill:none;">W<tspan x="12669.8px " y="4697.02px ">r</tspan>iting</text>
        </g>
        <text x="12334.4px" y="4664.98px" style="font-family:'Roboto-Light', 'Roboto';font-weight:300;font-size:20px;fill:#bababa;">Drawing Complex 3D Objects Nice &amp; Quickly</text>
        <g transform="matrix(1.08759,0,0,1,-1108.24,0)">
            <text x="12652px" y="4697.02px" style="font-family:'Roboto-Light', 'Roboto';font-weight:300;font-size:20px;fill:#c7c7c7;">W<tspan x="12669.8px " y="4697.02px ">r</tspan>iting</text>
        </g>
    </g>
    <g transform="matrix(1,0,0,1,-11390.2,-4318.64)">
        <text x="12407.3px" y="4664.98px" style="font-family:'Roboto-Light', 'Roboto';font-weight:300;font-size:20px;fill:none;">Resear<tspan x="12468.6px " y="4664.98px ">c</tspan>h &amp; Analytics</text>
        <g transform="matrix(1.08759,0,0,1,-1086.8,0)">
            <text x="12407.3px" y="4697.02px" style="font-family:'Roboto-Light', 'Roboto';font-weight:300;font-size:20px;fill:none;">F<tspan x="12418.6px " y="4697.02px ">a</tspan>ster &amp; Better Design</text>
        </g>
        <g transform="matrix(1.08759,0,0,1,-1086.8,0)">
            <text x="12407.3px" y="4729.05px" style="font-family:'Roboto-Light', 'Roboto';font-weight:300;font-size:20px;fill:none;">Time estimates for industrial design pr<tspan x="12744.9px " y="4729.05px ">o</tspan>jects</text>
        </g>
        <g transform="matrix(1.08759,0,0,1,-1086.8,0)">
            <text x="12407.3px" y="4765.09px" style="font-family:'Roboto-Light', 'Roboto';font-weight:300;font-size:20px;fill:none;">W<tspan x="12425px " y="4765.09px ">o</tspan>rk mor<tspan x="12492.9px " y="4765.09px ">e</tspan> structur<tspan x="12577.3px " y="4765.09px ">e</tspan>d</text>
        </g>
        <text x="12407.3px" y="4664.98px" style="font-family:'Roboto-Light', 'Roboto';font-weight:300;font-size:20px;fill:#bababa;">Resear<tspan x="12468.6px " y="4664.98px ">c</tspan>h &amp; Analytics</text>
        <g transform="matrix(1.08759,0,0,1,-1086.8,0)">
            <text x="12407.3px" y="4697.02px" style="font-family:'Roboto-Light', 'Roboto';font-weight:300;font-size:20px;fill:#c7c7c7;">F<tspan x="12418.6px " y="4697.02px ">a</tspan>ster &amp; Better Design</text>
        </g>
        <g transform="matrix(1.08759,0,0,1,-1086.8,0)">
            <text x="12407.3px" y="4729.05px" style="font-family:'Roboto-Light', 'Roboto';font-weight:300;font-size:20px;fill:#c7c7c7;">Time estimates for industrial design pr<tspan x="12744.9px " y="4729.05px ">o</tspan>jects</text>
        </g>
        <g transform="matrix(1.08759,0,0,1,-1086.8,0)">
            <text x="12407.3px" y="4765.09px" style="font-family:'Roboto-Light', 'Roboto';font-weight:300;font-size:20px;fill:#c7c7c7;">W<tspan x="12425px " y="4765.09px ">o</tspan>rk mor<tspan x="12492.9px " y="4765.09px ">e</tspan> structur<tspan x="12577.3px " y="4765.09px ">e</tspan>d</text>
        </g>
    </g>
    <rect x="-237.759" y="-1838.14" width="1920" height="1837.23" style="fill:none;"/>
    <clipPath id="_clip1">
        <rect x="-237.759" y="-1838.14" width="1920" height="1837.23"/>
    </clipPath>
    <g clip-path="url(#_clip1)">
        <g>
            <g>
                <path d="M721.795,-1.916l-0.402,-350.304c0,0 0.146,-22.672 0.261,-40.736c0.037,-5.796 -2.239,-11.367 -6.324,-15.478c-4.085,-4.111 -9.641,-6.423 -15.437,-6.423c-30.268,0 -81.196,0 -81.196,0l-70.612,0c0,0 -38.715,0 -65.212,0c-13.405,0 -24.275,-10.86 -24.287,-24.265c-0.034,-37.368 -0.096,-104.735 -0.096,-104.735" style="fill:none;stroke:#fff;stroke-width:4px;"/>
            </g>
        </g>
    </g>
    <g>
        <clipPath id="_clip2">
            <rect x="-14472.5" y="1937.31" width="1548.67" height="267.404"/>
        </clipPath>
        <g clip-path="url(#_clip2)">
        </g>
    </g>
</svg>
