<?xml version="1.0" encoding="UTF-8" standalone="no"?><!DOCTYPE svg PUBLIC "-//W3C//DTD SVG 1.1//EN" "http://www.w3.org/Graphics/SVG/1.1/DTD/svg11.dtd"><svg width="100%" height="100%" viewBox="0 0 300 300" version="1.1" xmlns="http://www.w3.org/2000/svg" xmlns:xlink="http://www.w3.org/1999/xlink" xml:space="preserve" style="fill-rule:evenodd;clip-rule:evenodd;"><path d="M233.366,30.098c37.873,26.381 62.658,70.248 62.658,119.902c0,49.655 -24.784,93.521 -62.657,119.902" style="fill:none;stroke:#f5f4f4;stroke-width:1.81px;"/><path d="M66.633,269.902c-37.873,-26.381 -62.657,-70.247 -62.657,-119.902c0,-49.654 24.785,-93.521 62.658,-119.902" style="fill:none;stroke:#f5f4f4;stroke-width:1.81px;"/><path d="M127.249,70.681c-5.113,0 -75.22,42.301 -46.506,150.038c0.345,1.297 14.198,-17.992 62.559,-17.992c0.314,0 8.818,-35.383 0,-68.816c-10.325,-39.143 2.798,-63.23 -16.053,-63.23Z" style="fill:none;stroke:#f5f4f4;stroke-width:1.99px;stroke-linecap:round;stroke-linejoin:round;stroke-miterlimit:1.41421;"/><path d="M172.034,70.681c5.114,0 75.221,42.301 46.507,150.038c-0.346,1.297 -14.198,-17.992 -62.559,-17.992c-0.314,0 -8.818,-35.383 0,-68.816c10.324,-39.143 -2.799,-63.23 16.052,-63.23Z" style="fill:none;stroke:#f5f4f4;stroke-width:1.99px;stroke-linecap:round;stroke-linejoin:round;stroke-miterlimit:1.41421;"/><path d="M140.104,115.719l5.652,0l0,-69.213" style="fill:none;stroke:#f5f4f4;stroke-width:1.99px;stroke-linecap:round;stroke-linejoin:round;stroke-miterlimit:1.41421;"/><path d="M154.805,46.506l0,69.213l4.736,0.385" style="fill:none;stroke:#f5f4f4;stroke-width:1.99px;stroke-linecap:round;stroke-linejoin:round;stroke-miterlimit:1.41421;"/><path d="M154.211,141.14l-1.551,-11.112l-4.887,0l-2.786,11.059" style="fill:none;stroke:#f5f4f4;stroke-width:1.99px;stroke-linecap:round;stroke-linejoin:round;stroke-miterlimit:1.41421;"/></svg>