<?xml version="1.0" encoding="UTF-8" standalone="no"?><!DOCTYPE svg PUBLIC "-//W3C//DTD SVG 1.1//EN" "http://www.w3.org/Graphics/SVG/1.1/DTD/svg11.dtd"><svg width="100%" height="100%" viewBox="0 0 300 300" version="1.1" xmlns="http://www.w3.org/2000/svg" xmlns:xlink="http://www.w3.org/1999/xlink" xml:space="preserve" style="fill-rule:evenodd;clip-rule:evenodd;stroke-linejoin:round;stroke-miterlimit:1.41421;"><g><path d="M211.992,109.657l-21.263,-21.263c-1.367,-1.368 -3.224,-2.138 -5.159,-2.138l-69.113,0c-1.933,0 -3.79,0.77 -5.157,2.138l-21.263,21.263c-1.368,1.367 -2.138,3.224 -2.138,5.159l0,69.11c0,1.932 0.77,3.789 2.138,5.157l21.263,21.263c1.367,1.367 3.224,2.137 5.157,2.137l69.11,0c1.934,0 3.791,-0.77 5.159,-2.137l21.263,-21.263c1.367,-1.368 2.138,-3.225 2.138,-5.157l0,-69.11c0.003,-1.935 -0.767,-3.792 -2.135,-5.159m-60.978,101.372c-34.053,0 -61.655,-27.604 -61.655,-61.657c0,-34.053 27.602,-61.656 61.655,-61.656c34.054,0 61.656,27.603 61.656,61.656c0,34.053 -27.602,61.657 -61.656,61.657" style="fill:#fff;fill-rule:nonzero;stroke:#404040;stroke-width:0.26px;"/><path d="M211.992,109.657l-21.263,-21.263c-1.367,-1.368 -3.224,-2.138 -5.159,-2.138l-69.113,0c-1.933,0 -3.79,0.77 -5.157,2.138l-21.263,21.263c-1.368,1.367 -2.138,3.224 -2.138,5.159l0,69.11c0,1.932 0.77,3.789 2.138,5.157l21.263,21.263c1.367,1.367 3.224,2.137 5.157,2.137l69.11,0c1.934,0 3.791,-0.77 5.159,-2.137l21.263,-21.263c1.367,-1.368 2.138,-3.225 2.138,-5.157l0,-69.11c0.003,-1.935 -0.767,-3.792 -2.135,-5.159Zm-60.978,101.372c-34.053,0 -61.655,-27.604 -61.655,-61.657c0,-34.053 27.602,-61.656 61.655,-61.656c34.054,0 61.656,27.603 61.656,61.656c0,34.053 -27.602,61.657 -61.656,61.657Z" style="fill:#fff;fill-rule:nonzero;stroke:#404040;stroke-width:0.26px;stroke-linejoin:miter;stroke-miterlimit:10;"/><path d="M151.014,149.372l-1.225,-2.08c-7.83,-13.287 -13.945,-42.002 -9.501,-56.686c-9.036,1.637 -17.37,5.293 -24.502,10.495c4.166,15.56 19.186,41.336 33.751,48.289l1.477,-0.018Z" style="fill:#fff;fill-rule:nonzero;stroke:#404040;stroke-width:0.26px;stroke-linejoin:miter;stroke-miterlimit:10;"/><path d="M151.062,149.419l0.605,-2.335c3.937,-15.159 19.461,-39.707 33.335,-46.894c-7.373,-5.087 -15.943,-8.563 -25.206,-9.921l-0.008,0.014c-8.256,14.015 -15.206,42.778 -9.784,58.111l1.058,1.025Z" style="fill:#fff;fill-rule:nonzero;stroke:#404040;stroke-width:0.26px;stroke-linejoin:miter;stroke-miterlimit:10;"/><path d="M151.04,147.945c7.027,-14.669 31.558,-29.802 47.322,-33.884l0.792,-0.206c5.428,7.32 9.212,15.925 10.828,25.272c-15.119,-5.041 -43.076,0.985 -56.845,9.07l-2.083,1.223l-0.014,-1.475Z" style="fill:#fff;fill-rule:nonzero;stroke:#404040;stroke-width:0.26px;stroke-linejoin:miter;stroke-miterlimit:10;"/><path d="M152.043,148.314c15.356,-5.411 42.718,1.547 56.756,9.792l1.321,0.773c-1.513,9.446 -5.246,18.143 -10.646,25.561c-7.077,-14.449 -30.513,-30.428 -46.121,-34.466l-2.338,-0.602l1.028,-1.058Z" style="fill:#fff;fill-rule:nonzero;stroke:#404040;stroke-width:0.26px;stroke-linejoin:miter;stroke-miterlimit:10;"/><path d="M152.488,149.35c14.692,7.016 28.406,31.529 32.492,47.268l0.427,1.645c-7.464,5.243 -16.177,8.824 -25.615,10.208c5.152,-15.162 0.584,-43.203 -7.556,-57.024l-1.222,-2.075l1.474,-0.022Z" style="fill:#fff;fill-rule:nonzero;stroke:#404040;stroke-width:0.26px;stroke-linejoin:miter;stroke-miterlimit:10;"/><path d="M152.072,150.397c5.421,15.333 -2.948,42.627 -11.208,56.64l-0.642,1.086c-9.212,-1.677 -17.689,-5.449 -24.911,-10.82c14.047,-7.155 31.124,-30.318 35.093,-45.6l0.611,-2.331l1.057,1.025Z" style="fill:#fff;fill-rule:nonzero;stroke:#404040;stroke-width:0.26px;stroke-linejoin:miter;stroke-miterlimit:10;"/><path d="M151.08,150.89c-7.027,14.669 -33.024,28.288 -48.789,32.371l-0.445,0.117c-5.042,-7.257 -8.523,-15.678 -9.934,-24.783c14.783,4.542 43.678,-0.092 57.067,-7.954l2.083,-1.222l0.018,1.471Z" style="fill:#fff;fill-rule:nonzero;stroke:#404040;stroke-width:0.26px;stroke-linejoin:miter;stroke-miterlimit:10;"/><path d="M151.014,149.372l-2.338,-0.606c-14.881,-3.852 -39.202,-20.466 -46.473,-33.899c-5.078,7.15 -8.616,15.461 -10.145,24.458c13.998,8.143 42.641,16.49 57.928,11.101l1.028,-1.054Z" style="fill:#fff;fill-rule:nonzero;stroke:#404040;stroke-width:0.26px;stroke-linejoin:miter;stroke-miterlimit:10;"/><path d="M151.014,149.372l-1.225,-2.08c-7.83,-13.287 -13.945,-42.002 -9.501,-56.686c-9.036,1.637 -17.37,5.293 -24.502,10.495c4.166,15.56 19.186,41.336 33.751,48.289l1.477,-0.018Z" style="fill:#fff;fill-rule:nonzero;stroke:#404040;stroke-width:0.26px;stroke-linejoin:miter;stroke-miterlimit:10;"/><path d="M151.062,149.419l0.605,-2.335c3.937,-15.159 19.461,-39.707 33.335,-46.894c-7.373,-5.087 -15.943,-8.563 -25.206,-9.921l-0.008,0.014c-8.256,14.015 -15.206,42.778 -9.784,58.111l1.058,1.025Z" style="fill:#fff;fill-rule:nonzero;stroke:#404040;stroke-width:0.26px;stroke-linejoin:miter;stroke-miterlimit:10;"/><path d="M151.04,147.945c7.027,-14.669 31.558,-29.802 47.322,-33.884l0.792,-0.206c5.428,7.32 9.212,15.925 10.828,25.272c-15.119,-5.041 -43.076,0.985 -56.845,9.07l-2.083,1.223l-0.014,-1.475Z" style="fill:#fff;fill-rule:nonzero;stroke:#404040;stroke-width:0.26px;stroke-linejoin:miter;stroke-miterlimit:10;"/><path d="M152.043,148.314c15.356,-5.411 42.718,1.547 56.756,9.792l1.321,0.773c-1.513,9.446 -5.246,18.143 -10.646,25.561c-7.077,-14.449 -30.513,-30.428 -46.121,-34.466l-2.338,-0.602l1.028,-1.058Z" style="fill:#fff;fill-rule:nonzero;stroke:#404040;stroke-width:0.26px;stroke-linejoin:miter;stroke-miterlimit:10;"/><path d="M152.488,149.35c14.692,7.016 28.406,31.529 32.492,47.268l0.427,1.645c-7.464,5.243 -16.177,8.824 -25.615,10.208c5.152,-15.162 0.584,-43.203 -7.556,-57.024l-1.222,-2.075l1.474,-0.022Z" style="fill:#fff;fill-rule:nonzero;stroke:#404040;stroke-width:0.26px;stroke-linejoin:miter;stroke-miterlimit:10;"/><path d="M152.072,150.397c5.421,15.333 -2.948,42.627 -11.208,56.64l-0.642,1.086c-9.212,-1.677 -17.689,-5.449 -24.911,-10.82c14.047,-7.155 31.124,-30.318 35.093,-45.6l0.611,-2.331l1.057,1.025Z" style="fill:#fff;fill-rule:nonzero;stroke:#404040;stroke-width:0.26px;stroke-linejoin:miter;stroke-miterlimit:10;"/><path d="M151.08,150.89c-7.027,14.669 -33.024,28.288 -48.789,32.371l-0.445,0.117c-5.042,-7.257 -8.523,-15.678 -9.934,-24.783c14.783,4.542 43.678,-0.092 57.067,-7.954l2.083,-1.222l0.018,1.471Z" style="fill:#fff;fill-rule:nonzero;stroke:#404040;stroke-width:0.26px;stroke-linejoin:miter;stroke-miterlimit:10;"/><path d="M151.014,149.372l-2.338,-0.606c-14.881,-3.852 -39.202,-20.466 -46.473,-33.899c-5.078,7.15 -8.616,15.461 -10.145,24.458c13.998,8.143 42.641,16.49 57.928,11.101l1.028,-1.054Z" style="fill:#fff;fill-rule:nonzero;stroke:#404040;stroke-width:0.26px;stroke-linejoin:miter;stroke-miterlimit:10;"/><path d="M208.796,158.106c-13.473,-7.914 -39.212,-14.633 -54.837,-10.38c14.027,-7.847 41.199,-13.545 56.027,-8.603c-1.621,-9.346 -5.4,-17.949 -10.828,-25.272l-0.793,0.205c-15.203,3.937 -38.561,18.155 -46.504,32.321c4.221,-15.206 19.485,-39.117 33.144,-46.191c-7.373,-5.087 -15.942,-8.563 -25.206,-9.921l-0.006,0.015c-7.976,13.539 -14.733,40.836 -10.296,56.499c-7.684,-13.499 -13.591,-41.676 -9.201,-56.173c-9.037,1.637 -17.369,5.293 -24.503,10.495c4.021,15.009 18.137,39.519 32.201,47.48c-14.933,-4.174 -38.629,-20.486 -45.787,-33.714c-5.079,7.15 -8.616,15.461 -10.146,24.458c13.575,7.894 40.924,15.983 56.506,11.553c-13.565,7.72 -42.025,12.216 -56.656,7.717c1.413,9.106 4.893,17.526 9.936,24.783l0.444,-0.116c15.138,-3.919 39.709,-16.634 47.858,-30.628c-4.395,15.275 -21.072,37.656 -34.834,44.669c7.221,5.374 15.7,9.143 24.912,10.82l0.641,-1.086c7.969,-13.525 16.034,-39.409 11.723,-54.983c7.923,14.016 12.286,41.472 7.208,56.417c9.435,-1.383 18.148,-4.969 25.616,-10.209l-0.428,-1.645c-3.943,-15.18 -16.84,-38.526 -30.933,-46.457c15.6,4.322 38.453,20.043 45.423,34.279c5.397,-7.417 9.133,-16.118 10.646,-25.56l-1.327,-0.773Zm-57.804,-8.647l-0.145,0.084l0.168,-0.171l-0.023,0.087Z" style="fill:#fff;fill-rule:nonzero;stroke:#404040;stroke-width:0.26px;stroke-linejoin:miter;stroke-miterlimit:10;"/><path d="M206.468,82.973l-110.908,0c-6.046,0 -10.945,4.899 -10.945,10.944l0,110.909c0,6.046 4.899,10.945 10.945,10.945l110.908,0c6.046,0 10.945,-4.899 10.945,-10.945l0,-110.909c0,-6.045 -4.899,-10.944 -10.945,-10.944m2.92,5.837c1.206,0 2.188,0.982 2.188,2.19c0,1.207 -0.982,2.188 -2.188,2.188c-1.208,0 -2.19,-0.981 -2.19,-2.188c0,-1.208 0.982,-2.19 2.19,-2.19m-23.817,-2.554c1.934,0 3.791,0.77 5.159,2.137l19.041,19.041c0.284,0.286 0.284,0.748 0,1.034l-40.438,40.455c-0.376,0.376 -0.862,0.625 -1.39,0.672c-0.278,0.025 -0.512,-0.018 -0.512,-0.223c0,-5.209 -2.429,-9.85 -6.217,-12.86l-48.627,-48.606c-0.168,-0.168 -0.131,-0.449 0.069,-0.573c1.134,-0.698 2.448,-1.077 3.801,-1.077l69.114,0Zm-92.929,2.554c1.208,0 2.188,0.982 2.188,2.19c0,1.207 -0.98,2.188 -2.188,2.188c-1.208,0 -2.19,-0.981 -2.19,-2.188c0,-1.208 0.982,-2.19 2.19,-2.19m-4.742,26.005c0,-1.933 0.768,-3.79 2.137,-5.159l19.314,-19.314c0.142,-0.142 0.371,-0.142 0.514,0l40.723,40.701c0.374,0.376 0.623,0.864 0.663,1.393c0.023,0.281 -0.025,0.516 -0.234,0.516c-5.267,0 -9.948,2.483 -12.955,6.336l-48.499,48.522c-0.168,0.168 -0.449,0.131 -0.574,-0.069c-0.704,-1.139 -1.086,-2.46 -1.086,-3.819l0,-69.107l-0.003,0Zm4.742,95.118c-1.208,0 -2.19,-0.981 -2.19,-2.189c0,-1.206 0.982,-2.188 2.19,-2.188c1.208,0 2.188,0.982 2.188,2.188c0,1.208 -0.98,2.189 -2.188,2.189m23.815,2.555c-1.932,0 -3.789,-0.77 -5.159,-2.138l-19.299,-19.301c-0.142,-0.142 -0.142,-0.371 0,-0.513l40.686,-40.707c0.377,-0.377 0.864,-0.628 1.397,-0.68c0.281,-0.026 0.515,0.014 0.515,0.219c0,5.319 2.532,10.044 6.454,13.043l48.085,48.07c0.346,0.347 0.262,0.933 -0.173,1.161c-1.035,0.546 -2.199,0.846 -3.396,0.846l-69.11,0Zm92.931,-2.555c-1.208,0 -2.19,-0.981 -2.19,-2.189c0,-1.206 0.982,-2.188 2.19,-2.188c1.206,0 2.188,0.982 2.188,2.188c0,1.208 -0.982,2.189 -2.188,2.189m4.742,-26.005c0,1.935 -0.77,3.792 -2.138,5.159l-19.029,19.03c-0.286,0.284 -0.748,0.284 -1.034,0l-40.477,-40.46c-0.368,-0.368 -0.612,-0.846 -0.661,-1.365c-0.026,-0.273 0.02,-0.503 0.22,-0.503c5.267,0 9.953,-2.484 12.955,-6.34l48.16,-48.183c0.348,-0.347 0.935,-0.263 1.165,0.171c0.544,1.032 0.834,2.188 0.834,3.378l0,69.113l0.005,0Z" style="fill:#fff;fill-rule:nonzero;stroke:#404040;stroke-width:0.26px;"/><path d="M206.468,82.973l-110.908,0c-6.046,0 -10.945,4.899 -10.945,10.944l0,110.909c0,6.046 4.899,10.945 10.945,10.945l110.908,0c6.046,0 10.945,-4.899 10.945,-10.945l0,-110.909c0,-6.045 -4.899,-10.944 -10.945,-10.944Zm2.92,5.837c1.206,0 2.188,0.982 2.188,2.19c0,1.207 -0.982,2.188 -2.188,2.188c-1.208,0 -2.19,-0.981 -2.19,-2.188c0,-1.208 0.982,-2.19 2.19,-2.19Zm-23.817,-2.554c1.934,0 3.791,0.77 5.159,2.137l19.041,19.041c0.284,0.286 0.284,0.748 0,1.034l-40.438,40.455c-0.376,0.376 -0.862,0.625 -1.39,0.672c-0.278,0.025 -0.512,-0.018 -0.512,-0.223c0,-5.209 -2.429,-9.85 -6.217,-12.86l-48.627,-48.606c-0.168,-0.168 -0.131,-0.449 0.069,-0.573c1.134,-0.698 2.448,-1.077 3.801,-1.077l69.114,0Zm-92.929,2.554c1.208,0 2.188,0.982 2.188,2.19c0,1.207 -0.98,2.188 -2.188,2.188c-1.208,0 -2.19,-0.981 -2.19,-2.188c0,-1.208 0.982,-2.19 2.19,-2.19Zm-4.742,26.005c0,-1.933 0.768,-3.79 2.137,-5.159l19.314,-19.314c0.142,-0.142 0.371,-0.142 0.514,0l40.723,40.701c0.374,0.376 0.623,0.864 0.663,1.393c0.023,0.281 -0.025,0.516 -0.234,0.516c-5.267,0 -9.948,2.483 -12.955,6.336l-48.499,48.522c-0.168,0.168 -0.449,0.131 -0.574,-0.069c-0.704,-1.139 -1.086,-2.46 -1.086,-3.819l0,-69.107l-0.003,0Zm4.742,95.118c-1.208,0 -2.19,-0.981 -2.19,-2.189c0,-1.206 0.982,-2.188 2.19,-2.188c1.208,0 2.188,0.982 2.188,2.188c0,1.208 -0.98,2.189 -2.188,2.189Zm23.815,2.555c-1.932,0 -3.789,-0.77 -5.159,-2.138l-19.299,-19.301c-0.142,-0.142 -0.142,-0.371 0,-0.513l40.686,-40.707c0.377,-0.377 0.864,-0.628 1.397,-0.68c0.281,-0.026 0.515,0.014 0.515,0.219c0,5.319 2.532,10.044 6.454,13.043l48.085,48.07c0.346,0.347 0.262,0.933 -0.173,1.161c-1.035,0.546 -2.199,0.846 -3.396,0.846l-69.11,0Zm92.931,-2.555c-1.208,0 -2.19,-0.981 -2.19,-2.189c0,-1.206 0.982,-2.188 2.19,-2.188c1.206,0 2.188,0.982 2.188,2.188c0,1.208 -0.982,2.189 -2.188,2.189Zm4.742,-26.005c0,1.935 -0.77,3.792 -2.138,5.159l-19.029,19.03c-0.286,0.284 -0.748,0.284 -1.034,0l-40.477,-40.46c-0.368,-0.368 -0.612,-0.846 -0.661,-1.365c-0.026,-0.273 0.02,-0.503 0.22,-0.503c5.267,0 9.953,-2.484 12.955,-6.34l48.16,-48.183c0.348,-0.347 0.935,-0.263 1.165,0.171c0.544,1.032 0.834,2.188 0.834,3.378l0,69.113l0.005,0Z" style="fill:#fff;fill-rule:nonzero;stroke:#404040;stroke-width:0.26px;stroke-linecap:round;stroke-linejoin:miter;stroke-miterlimit:10;"/><path d="M161.959,149.372c0,6.044 -4.901,10.944 -10.944,10.944c-6.046,0 -10.945,-4.9 -10.945,-10.944c0,-6.044 4.899,-10.945 10.945,-10.945c6.043,0 10.944,4.901 10.944,10.945" style="fill:#fff;fill-rule:nonzero;stroke:#404040;stroke-width:0.26px;"/><path d="M161.959,149.372c0,6.044 -4.901,10.944 -10.944,10.944c-6.046,0 -10.945,-4.9 -10.945,-10.944c0,-6.044 4.899,-10.945 10.945,-10.945c6.043,0 10.944,4.901 10.944,10.945Z" style="fill:#fff;fill-rule:nonzero;stroke:#404040;stroke-width:0.26px;stroke-linejoin:miter;stroke-miterlimit:10;"/><path d="M154.663,132.59l-43.78,-43.78" style="fill:#fff;fill-rule:nonzero;stroke:#404040;stroke-width:0.26px;stroke-linecap:round;stroke-linejoin:miter;stroke-miterlimit:10;"/><path d="M134.232,145.724l-43.78,43.779" style="fill:#fff;fill-rule:nonzero;stroke:#404040;stroke-width:0.26px;stroke-linecap:round;stroke-linejoin:miter;stroke-miterlimit:10;"/><path d="M167.796,153.02l43.78,-43.78" style="fill:#fff;fill-rule:nonzero;stroke:#404040;stroke-width:0.26px;stroke-linecap:round;stroke-linejoin:miter;stroke-miterlimit:10;"/><path d="M147.366,166.154l43.78,43.78" style="fill:#fff;fill-rule:nonzero;stroke:#404040;stroke-width:0.26px;stroke-linecap:round;stroke-linejoin:miter;stroke-miterlimit:10;"/><path d="M139.923,139.886c2.678,-3.126 6.651,-5.107 11.092,-5.107c0.368,0 0.733,0.015 1.093,0.04" style="fill:#fff;fill-rule:nonzero;stroke:#404040;stroke-width:0.26px;stroke-linecap:round;stroke-linejoin:miter;stroke-miterlimit:10;"/><path d="M137.979,142.805c0.194,-0.383 0.405,-0.759 0.631,-1.124" style="fill:#fff;fill-rule:nonzero;stroke:#404040;stroke-width:0.26px;stroke-linecap:round;stroke-linejoin:miter;stroke-miterlimit:10;"/><path d="M151.014,163.965c-4.771,0 -9.012,-2.291 -11.674,-5.837" style="fill:#fff;fill-rule:nonzero;stroke:#404040;stroke-width:0.26px;stroke-linecap:round;stroke-linejoin:miter;stroke-miterlimit:10;"/><path d="M153.933,163.673c-0.362,0.073 -0.727,0.131 -1.095,0.179" style="fill:#fff;fill-rule:nonzero;stroke:#404040;stroke-width:0.26px;stroke-linecap:round;stroke-linejoin:miter;stroke-miterlimit:10;"/><path d="M162.955,140.981c1.671,2.375 2.653,5.269 2.653,8.391c0,2.66 -0.712,5.151 -1.952,7.296" style="fill:#fff;fill-rule:nonzero;stroke:#404040;stroke-width:0.26px;stroke-linecap:round;stroke-linejoin:miter;stroke-miterlimit:10;"/><path d="M161.065,138.792c0.249,0.234 0.486,0.478 0.716,0.73" style="fill:#fff;fill-rule:nonzero;stroke:#404040;stroke-width:0.26px;stroke-linecap:round;stroke-linejoin:miter;stroke-miterlimit:10;"/><path d="M86.439,189.503l0,11.675" style="fill:#fff;fill-rule:nonzero;stroke:#404040;stroke-width:0.26px;stroke-linecap:round;stroke-linejoin:miter;stroke-miterlimit:10;"/><path d="M86.439,203.002l0,1.095" style="fill:#fff;fill-rule:nonzero;stroke:#404040;stroke-width:0.26px;stroke-linecap:round;stroke-linejoin:miter;stroke-miterlimit:10;"/><path d="M101.762,213.947l5.108,0" style="fill:#fff;fill-rule:nonzero;stroke:#404040;stroke-width:0.26px;stroke-linecap:round;stroke-linejoin:miter;stroke-miterlimit:10;"/><path d="M108.694,213.947l1.095,0" style="fill:#fff;fill-rule:nonzero;stroke:#404040;stroke-width:0.26px;stroke-linecap:round;stroke-linejoin:miter;stroke-miterlimit:10;"/><path d="M189.321,213.947l7.662,0" style="fill:#fff;fill-rule:nonzero;stroke:#404040;stroke-width:0.26px;stroke-linecap:round;stroke-linejoin:miter;stroke-miterlimit:10;"/><path d="M198.807,213.947l1.095,0" style="fill:#fff;fill-rule:nonzero;stroke:#404040;stroke-width:0.26px;stroke-linecap:round;stroke-linejoin:miter;stroke-miterlimit:10;"/><path d="M215.589,204.096l0,-9.12" style="fill:#fff;fill-rule:nonzero;stroke:#404040;stroke-width:0.26px;stroke-linecap:round;stroke-linejoin:miter;stroke-miterlimit:10;"/><path d="M215.589,193.151l0,-1.094" style="fill:#fff;fill-rule:nonzero;stroke:#404040;stroke-width:0.26px;stroke-linecap:round;stroke-linejoin:miter;stroke-miterlimit:10;"/><path d="M215.589,101.944l0,-5.107" style="fill:#fff;fill-rule:nonzero;stroke:#404040;stroke-width:0.26px;stroke-linecap:round;stroke-linejoin:miter;stroke-miterlimit:10;"/><path d="M215.589,95.012l0,-1.095" style="fill:#fff;fill-rule:nonzero;stroke:#404040;stroke-width:0.26px;stroke-linecap:round;stroke-linejoin:miter;stroke-miterlimit:10;"/><path d="M203.915,84.797l-8.392,0" style="fill:#fff;fill-rule:nonzero;stroke:#404040;stroke-width:0.26px;stroke-linecap:round;stroke-linejoin:miter;stroke-miterlimit:10;"/><path d="M193.699,84.797l-1.094,0" style="fill:#fff;fill-rule:nonzero;stroke:#404040;stroke-width:0.26px;stroke-linecap:round;stroke-linejoin:miter;stroke-miterlimit:10;"/><path d="M110.883,84.797l-12.404,0" style="fill:#fff;fill-rule:nonzero;stroke:#404040;stroke-width:0.26px;stroke-linecap:round;stroke-linejoin:miter;stroke-miterlimit:10;"/><path d="M96.655,84.797l-1.095,0" style="fill:#fff;fill-rule:nonzero;stroke:#404040;stroke-width:0.26px;stroke-linecap:round;stroke-linejoin:miter;stroke-miterlimit:10;"/><path d="M86.439,94.647l0,11.31" style="fill:#fff;fill-rule:nonzero;stroke:#404040;stroke-width:0.26px;stroke-linecap:round;stroke-linejoin:miter;stroke-miterlimit:10;"/><path d="M86.439,107.781l0,1.095" style="fill:#fff;fill-rule:nonzero;stroke:#404040;stroke-width:0.26px;stroke-linecap:round;stroke-linejoin:miter;stroke-miterlimit:10;"/><path d="M95.56,106.869l5.655,-5.655" style="fill:#fff;fill-rule:nonzero;stroke:#404040;stroke-width:0.26px;stroke-linecap:round;stroke-linejoin:miter;stroke-miterlimit:10;"/><path d="M102.492,100.12l0.73,-0.73" style="fill:#fff;fill-rule:nonzero;stroke:#404040;stroke-width:0.26px;stroke-linecap:round;stroke-linejoin:miter;stroke-miterlimit:10;"/><path d="M209.752,188.773l-4.378,4.378" style="fill:#fff;fill-rule:nonzero;stroke:#404040;stroke-width:0.26px;stroke-linecap:round;stroke-linejoin:miter;stroke-miterlimit:10;"/><path d="M203.915,194.611l-0.73,0.73" style="fill:#fff;fill-rule:nonzero;stroke:#404040;stroke-width:0.26px;stroke-linecap:round;stroke-linejoin:miter;stroke-miterlimit:10;"/><path d="M120.733,198.445c-0.292,-0.182 -0.579,-0.365 -0.863,-0.551" style="fill:#fff;fill-rule:nonzero;stroke:#404040;stroke-width:0.26px;stroke-linecap:round;stroke-linejoin:miter;stroke-miterlimit:10;"/><path d="M137.151,205.53c-5.171,-1.356 -10.07,-3.389 -14.594,-5.994" style="fill:#fff;fill-rule:nonzero;stroke:#404040;stroke-width:0.26px;stroke-linecap:round;stroke-linejoin:miter;stroke-miterlimit:10;"/><path d="M98.716,124.928c-1.718,3.587 -3.086,7.37 -4.064,11.31" style="fill:#fff;fill-rule:nonzero;stroke:#404040;stroke-width:0.26px;stroke-linecap:round;stroke-linejoin:miter;stroke-miterlimit:10;"/><path d="M100.215,122.01c-0.219,0.397 -0.431,0.799 -0.642,1.199" style="fill:#fff;fill-rule:nonzero;stroke:#404040;stroke-width:0.26px;stroke-linecap:round;stroke-linejoin:miter;stroke-miterlimit:10;"/><path d="M134.232,94.038c-3.291,0.993 -6.46,2.254 -9.485,3.772" style="fill:#fff;fill-rule:nonzero;stroke:#404040;stroke-width:0.26px;stroke-linecap:round;stroke-linejoin:miter;stroke-miterlimit:10;"/><path d="M137.151,93.239c-0.365,0.091 -0.73,0.183 -1.095,0.281" style="fill:#fff;fill-rule:nonzero;stroke:#404040;stroke-width:0.26px;stroke-linecap:round;stroke-linejoin:miter;stroke-miterlimit:10;"/><path d="M177.282,97.694c-4.553,-2.343 -9.441,-4.119 -14.583,-5.235" style="fill:#fff;fill-rule:nonzero;stroke:#404040;stroke-width:0.26px;stroke-linecap:round;stroke-linejoin:miter;stroke-miterlimit:10;"/><path d="M180.358,99.39c-0.417,-0.244 -0.832,-0.486 -1.252,-0.718" style="fill:#fff;fill-rule:nonzero;stroke:#404040;stroke-width:0.26px;stroke-linecap:round;stroke-linejoin:miter;stroke-miterlimit:10;"/><path d="M207.249,135.143c0.091,0.365 0.179,0.73 0.263,1.095" style="fill:#fff;fill-rule:nonzero;stroke:#404040;stroke-width:0.26px;stroke-linecap:round;stroke-linejoin:miter;stroke-miterlimit:10;"/><path d="M202.601,122.739c1.707,3.357 3.1,6.895 4.155,10.577" style="fill:#fff;fill-rule:nonzero;stroke:#404040;stroke-width:0.26px;stroke-linecap:round;stroke-linejoin:miter;stroke-miterlimit:10;"/><path d="M200.631,179.284c-0.223,0.368 -0.449,0.737 -0.675,1.098" style="fill:#fff;fill-rule:nonzero;stroke:#404040;stroke-width:0.26px;stroke-linecap:round;stroke-linejoin:miter;stroke-miterlimit:10;"/><path d="M207.815,161.046c-1.237,5.834 -3.328,11.35 -6.133,16.417" style="fill:#fff;fill-rule:nonzero;stroke:#404040;stroke-width:0.26px;stroke-linecap:round;stroke-linejoin:miter;stroke-miterlimit:10;"/><path d="M164.148,205.851c-0.365,0.091 -0.73,0.179 -1.095,0.263" style="fill:#fff;fill-rule:nonzero;stroke:#404040;stroke-width:0.26px;stroke-linecap:round;stroke-linejoin:miter;stroke-miterlimit:10;"/><path d="M176.552,201.225c-3.357,1.7 -6.895,3.094 -10.579,4.14" style="fill:#fff;fill-rule:nonzero;stroke:#404040;stroke-width:0.26px;stroke-linecap:round;stroke-linejoin:miter;stroke-miterlimit:10;"/><path d="M95.998,166.884c-0.113,-0.362 -0.226,-0.727 -0.333,-1.095" style="fill:#fff;fill-rule:nonzero;stroke:#404040;stroke-width:0.26px;stroke-linecap:round;stroke-linejoin:miter;stroke-miterlimit:10;"/><path d="M99.938,176.398c-1.284,-2.465 -2.401,-5.034 -3.334,-7.691" style="fill:#fff;fill-rule:nonzero;stroke:#404040;stroke-width:0.26px;stroke-linecap:round;stroke-linejoin:miter;stroke-miterlimit:10;"/></g><g><clipPath id="_clip1"><path d="M150,123.672l127.308,-127.308l169.79,169.79l-169.79,169.79l-127.308,-127.308l-127.308,127.308l-169.79,-169.79l169.79,-169.79l127.308,127.308Z"/></clipPath><g clip-path="url(#_clip1)"><path d="M150,252.127c56.403,0 102.127,-45.724 102.127,-102.127c0,-56.403 -45.724,-102.127 -102.127,-102.127c-56.403,0 -102.127,45.724 -102.127,102.127c0,56.403 45.724,102.127 102.127,102.127Z" style="fill:none;stroke:#fff;stroke-width:1.94px;stroke-linejoin:miter;stroke-miterlimit:4;"/><path d="M150,265.003c63.515,0 115.003,-51.488 115.003,-115.003c0,-63.514 -51.488,-115.003 -115.003,-115.003c-63.515,0 -115.003,51.489 -115.003,115.003c0,63.515 51.488,115.003 115.003,115.003Z" style="fill:none;stroke:#fff;stroke-width:1.94px;stroke-linejoin:miter;stroke-miterlimit:4;"/><path d="M150,279.502c71.522,0 129.502,-57.98 129.502,-129.502c0,-71.521 -57.98,-129.502 -129.502,-129.502c-71.522,0 -129.502,57.981 -129.502,129.502c0,71.522 57.98,129.502 129.502,129.502Z" style="fill:none;stroke:#fff;stroke-width:1.94px;stroke-linejoin:miter;stroke-miterlimit:4;"/><path d="M150,295.83c80.539,0 145.83,-65.291 145.83,-145.83c0,-80.538 -65.291,-145.83 -145.83,-145.83c-80.539,0 -145.83,65.292 -145.83,145.83c0,80.539 65.291,145.83 145.83,145.83Z" style="fill:none;stroke:#fff;stroke-width:1.94px;stroke-linejoin:miter;stroke-miterlimit:4;"/></g></g></svg>