<?xml version="1.0" encoding="UTF-8" standalone="no"?><!DOCTYPE svg PUBLIC "-//W3C//DTD SVG 1.1//EN" "http://www.w3.org/Graphics/SVG/1.1/DTD/svg11.dtd"><svg width="100%" height="100%" viewBox="0 0 1000 840" version="1.1" xmlns="http://www.w3.org/2000/svg" xmlns:xlink="http://www.w3.org/1999/xlink" xml:space="preserve" style="fill-rule:evenodd;clip-rule:evenodd;stroke-linejoin:round;stroke-miterlimit:1.41421;"><path id="Browser-Window" d="M1000,5c0,-2.761 -2.239,-5 -5,-5c-72.8,0 -917.2,0 -990,0c-2.761,0 -5,2.239 -5,5c0,65.99 0,764.058 0,830.048c0,2.761 2.239,5 5,5c72.8,0 917.2,0 990,0c2.761,0 5,-2.239 5,-5c0,-65.99 0,-764.058 0,-830.048Z" style="fill:none;"/><clipPath id="_clip1"><path d="M1000,5c0,-2.761 -2.239,-5 -5,-5c-72.8,0 -917.2,0 -990,0c-2.761,0 -5,2.239 -5,5c0,65.99 0,764.058 0,830.048c0,2.761 2.239,5 5,5c72.8,0 917.2,0 990,0c2.761,0 5,-2.239 5,-5c0,-65.99 0,-764.058 0,-830.048Z"/></clipPath><g clip-path="url(#_clip1)"><path id="Bg" d="M1000,5c0,-2.761 -2.239,-5 -5,-5c-72.8,0 -917.2,0 -990,0c-2.761,0 -5,2.239 -5,5c0,65.99 0,764.058 0,830.048c0,2.761 2.239,5 5,5c72.8,0 917.2,0 990,0c2.761,0 5,-2.239 5,-5c0,-65.99 0,-764.058 0,-830.048Z" style="fill:#444;"/><path d="M995.065,0l0.064,0.002l0.064,0.002l0.064,0.003l0.064,0.003l0.064,0.005l0.063,0.005l0.063,0.006l0.063,0.007l0.063,0.007l0.062,0.009l0.062,0.009l0.062,0.009l0.062,0.011l0.062,0.011l0.061,0.013l0.061,0.012l0.06,0.014l0.061,0.014l0.06,0.015l0.059,0.016l0.06,0.017l0.059,0.017l0.059,0.018l0.058,0.018l0.059,0.02l0.058,0.02l0.057,0.02l0.057,0.022l0.057,0.022l0.113,0.046l0.112,0.049l0.11,0.051l0.108,0.054l0.107,0.056l0.106,0.059l0.104,0.062l0.102,0.064l0.101,0.066l0.098,0.068l0.098,0.071l0.095,0.073l0.093,0.076l0.092,0.077l0.09,0.08l0.088,0.082l0.086,0.083l0.083,0.086l0.082,0.088l0.08,0.09l0.077,0.092l0.076,0.093l0.073,0.095l0.071,0.098l0.068,0.098l0.066,0.101l0.064,0.102l0.062,0.104l0.059,0.106l0.056,0.107l0.054,0.108l0.051,0.11l0.049,0.112l0.046,0.113l0.022,0.057l0.022,0.057l0.02,0.057l0.02,0.058l0.02,0.059l0.018,0.058l0.018,0.059l0.017,0.059l0.017,0.06l0.016,0.059l0.015,0.06l0.014,0.061l0.014,0.06l0.012,0.061l0.013,0.061l0.011,0.062l0.011,0.062l0.009,0.062l0.009,0.062l0.009,0.062l0.007,0.063l0.007,0.063l0.006,0.063l0.005,0.063l0.005,0.064l0.003,0.064l0.003,0.064l0.002,0.064l0.002,0.064l0,0.065l0,830.048l0,0.064l-0.002,0.065l-0.002,0.064l-0.003,0.064l-0.003,0.064l-0.005,0.063l-0.005,0.064l-0.006,0.063l-0.007,0.063l-0.007,0.062l-0.009,0.063l-0.009,0.062l-0.009,0.062l-0.011,0.062l-0.011,0.061l-0.013,0.061l-0.012,0.061l-0.014,0.061l-0.014,0.06l-0.015,0.06l-0.016,0.06l-0.017,0.059l-0.017,0.06l-0.018,0.058l-0.018,0.059l-0.02,0.058l-0.02,0.058l-0.02,0.058l-0.022,0.057l-0.022,0.057l-0.046,0.113l-0.049,0.111l-0.051,0.11l-0.054,0.109l-0.056,0.107l-0.059,0.105l-0.062,0.104l-0.064,0.103l-0.066,0.1l-0.068,0.099l-0.071,0.097l-0.073,0.095l-0.076,0.094l-0.077,0.092l-0.08,0.089l-0.082,0.088l-0.083,0.086l-0.086,0.084l-0.088,0.082l-0.09,0.079l-0.092,0.078l-0.093,0.075l-0.095,0.073l-0.098,0.071l-0.098,0.069l-0.101,0.066l-0.102,0.064l-0.104,0.061l-0.106,0.059l-0.107,0.057l-0.108,0.053l-0.11,0.052l-0.112,0.049l-0.113,0.046l-0.057,0.022l-0.057,0.021l-0.057,0.021l-0.058,0.02l-0.059,0.019l-0.058,0.019l-0.059,0.018l-0.059,0.017l-0.06,0.016l-0.059,0.016l-0.06,0.015l-0.061,0.015l-0.06,0.013l-0.061,0.013l-0.061,0.012l-0.062,0.011l-0.062,0.011l-0.062,0.01l-0.062,0.009l-0.062,0.008l-0.063,0.008l-0.063,0.007l-0.063,0.006l-0.063,0.005l-0.064,0.004l-0.064,0.004l-0.064,0.003l-0.064,0.002l-0.064,0.001l-0.065,0.001l-990,0l-0.065,-0.001l-0.064,-0.001l-0.064,-0.002l-0.064,-0.003l-0.064,-0.004l-0.064,-0.004l-0.063,-0.005l-0.063,-0.006l-0.063,-0.007l-0.063,-0.008l-0.062,-0.008l-0.062,-0.009l-0.062,-0.01l-0.062,-0.011l-0.062,-0.011l-0.061,-0.012l-0.061,-0.013l-0.06,-0.013l-0.061,-0.015l-0.06,-0.015l-0.059,-0.016l-0.06,-0.016l-0.059,-0.017l-0.059,-0.018l-0.058,-0.019l-0.059,-0.019l-0.058,-0.02l-0.057,-0.021l-0.057,-0.021l-0.057,-0.022l-0.113,-0.046l-0.112,-0.049l-0.11,-0.052l-0.108,-0.053l-0.107,-0.057l-0.106,-0.059l-0.104,-0.061l-0.102,-0.064l-0.101,-0.066l-0.098,-0.069l-0.098,-0.071l-0.095,-0.073l-0.093,-0.075l-0.092,-0.078l-0.09,-0.079l-0.088,-0.082l-0.086,-0.084l-0.083,-0.086l-0.082,-0.088l-0.08,-0.089l-0.077,-0.092l-0.076,-0.094l-0.073,-0.095l-0.071,-0.097l-0.068,-0.099l-0.066,-0.1l-0.064,-0.103l-0.062,-0.104l-0.059,-0.105l-0.056,-0.107l-0.054,-0.109l-0.051,-0.11l-0.049,-0.111l-0.046,-0.113l-0.022,-0.057l-0.022,-0.057l-0.02,-0.058l-0.02,-0.058l-0.02,-0.058l-0.018,-0.059l-0.018,-0.058l-0.017,-0.06l-0.017,-0.059l-0.016,-0.06l-0.015,-0.06l-0.014,-0.06l-0.014,-0.061l-0.012,-0.061l-0.013,-0.061l-0.011,-0.061l-0.011,-0.062l-0.009,-0.062l-0.009,-0.062l-0.009,-0.063l-0.007,-0.062l-0.007,-0.063l-0.006,-0.063l-0.005,-0.064l-0.005,-0.063l-0.003,-0.064l-0.003,-0.064l-0.002,-0.064l-0.002,-0.065l0,-0.064l0,-830.048l0,-0.065l0.002,-0.064l0.002,-0.064l0.003,-0.064l0.003,-0.064l0.005,-0.064l0.005,-0.063l0.006,-0.063l0.007,-0.063l0.007,-0.063l0.009,-0.062l0.009,-0.062l0.009,-0.062l0.011,-0.062l0.011,-0.062l0.013,-0.061l0.012,-0.061l0.014,-0.06l0.014,-0.061l0.015,-0.06l0.016,-0.059l0.017,-0.06l0.017,-0.059l0.018,-0.059l0.018,-0.058l0.02,-0.059l0.02,-0.058l0.02,-0.057l0.022,-0.057l0.022,-0.057l0.046,-0.113l0.049,-0.112l0.051,-0.11l0.054,-0.108l0.056,-0.107l0.059,-0.106l0.062,-0.104l0.064,-0.102l0.066,-0.101l0.068,-0.098l0.071,-0.098l0.073,-0.095l0.076,-0.093l0.077,-0.092l0.08,-0.09l0.082,-0.088l0.083,-0.086l0.086,-0.083l0.088,-0.082l0.09,-0.08l0.092,-0.077l0.093,-0.076l0.095,-0.073l0.098,-0.071l0.098,-0.068l0.101,-0.066l0.102,-0.064l0.104,-0.062l0.106,-0.059l0.107,-0.056l0.108,-0.054l0.11,-0.051l0.112,-0.049l0.113,-0.046l0.057,-0.022l0.057,-0.022l0.057,-0.02l0.058,-0.02l0.059,-0.02l0.058,-0.018l0.059,-0.018l0.059,-0.017l0.06,-0.017l0.059,-0.016l0.06,-0.015l0.061,-0.014l0.06,-0.014l0.061,-0.012l0.061,-0.013l0.062,-0.011l0.062,-0.011l0.062,-0.009l0.062,-0.009l0.062,-0.009l0.063,-0.007l0.063,-0.007l0.063,-0.006l0.063,-0.005l0.064,-0.005l0.064,-0.003l0.064,-0.003l0.064,-0.002l0.064,-0.002l0.065,0l990,0l0.065,0Zm-990.049,5l-0.016,0l0,0l0,0l0,0.016l0,830.016l0,0.015l0,0l0.017,0.001l989.966,0l0.017,-0.001l0,0l0,0l0,-0.016l0,-830.014l0,-0.017l0,0l-0.016,0l-989.968,0Z" style="fill:#0b2541;"/><path d="M1000,5c0,-1.326 -0.527,-2.598 -1.464,-3.536c-0.938,-0.937 -2.21,-1.464 -3.536,-1.464c-72.8,0 -917.2,0 -990,0c-1.326,0 -2.598,0.527 -3.536,1.464c-0.937,0.938 -1.464,2.21 -1.464,3.536c0,12.609 0,44.703 0,44.703l1000,0c0,0 0,-32.094 0,-44.703Z" style="fill:#0b2541;"/><g><g opacity="0.3"><circle cx="35.109" cy="24.851" r="6.62" style="fill:#f5f4f4;"/><circle cx="59.624" cy="24.851" r="6.62" style="fill:#f5f4f4;"/><circle cx="84.14" cy="24.851" r="6.62" style="fill:#f5f4f4;"/></g></g></g></svg>