<?xml version="1.0" encoding="UTF-8" standalone="no"?><!DOCTYPE svg PUBLIC "-//W3C//DTD SVG 1.1//EN" "http://www.w3.org/Graphics/SVG/1.1/DTD/svg11.dtd"><svg width="100%" height="100%" viewBox="0 0 692 1419" version="1.1" xmlns="http://www.w3.org/2000/svg" xmlns:xlink="http://www.w3.org/1999/xlink" xml:space="preserve" style="fill-rule:evenodd;clip-rule:evenodd;stroke-linejoin:round;stroke-miterlimit:1.41421;"><g id="iPhone-6"><path id="Stroke" d="M100,0l492,0c55.228,0 100,44.772 100,100l0,1219c0,55.228 -44.772,100 -100,100l-492,0c-55.228,0 -100,-44.772 -100,-100l0,-1219c0,-55.228 44.772,-100 100,-100Z" style="fill:#33373f;fill-opacity:0.8;"/><path id="Base" d="M101,11l490,0c49.706,0 90,40.294 90,90l0,1217c0,49.706 -40.294,90 -90,90l-490,0c-49.706,0 -90,-40.294 -90,-90l0,-1217c0,-49.706 40.294,-90 90,-90Z" style="fill:#0b2541;"/><path id="Main-Button" d="M346.5,1381.28c-28.594,0 -51.775,-23.18 -51.775,-51.775c0,-28.594 23.181,-51.775 51.775,-51.775c28.595,0 51.775,23.181 51.775,51.775c0,28.595 -23.18,51.775 -51.775,51.775Zm0,-97.85c-25.446,0 -46.075,20.629 -46.075,46.075c0,25.447 20.629,46.075 46.075,46.075c25.447,0 46.075,-20.628 46.075,-46.075c0,-25.446 -20.628,-46.075 -46.075,-46.075Z" style="fill:#bbc0cc;fill-opacity:0.5;"/><rect id="Screen" x="44" y="174" width="604" height="1075" style="fill:#404040;"/><path id="Speaker" d="M300.5,83l92,0c3.038,0 5.5,2.463 5.5,5.5c0,3.038 -2.462,5.5 -5.5,5.5l-92,0c-3.037,0 -5.5,-2.462 -5.5,-5.5c0,-3.037 2.463,-5.5 5.5,-5.5Z" style="fill:#a0a5b2;fill-opacity:0.5;"/><path id="Proximity-Sensor" d="M237.5,78c5.799,0 10.5,4.701 10.5,10.5c0,5.799 -4.701,10.5 -10.5,10.5c-5.799,0 -10.5,-4.701 -10.5,-10.5c0,-5.799 4.701,-10.5 10.5,-10.5Z" style="fill:#a0a5b2;fill-opacity:0.5;"/><path id="Camera" d="M346.5,37.156c4.056,0 7.344,3.288 7.344,7.344c0,4.056 -3.288,7.344 -7.344,7.344c-4.056,0 -7.344,-3.288 -7.344,-7.344c0,-4.056 3.288,-7.344 7.344,-7.344Z" style="fill:#a0a5b2;fill-opacity:0.5;"/></g></svg>