<?xml version="1.0" encoding="UTF-8" standalone="no"?><!DOCTYPE svg PUBLIC "-//W3C//DTD SVG 1.1//EN" "http://www.w3.org/Graphics/SVG/1.1/DTD/svg11.dtd"><svg width="100%" height="100%" viewBox="0 0 125 74" version="1.1" xmlns="http://www.w3.org/2000/svg" xmlns:xlink="http://www.w3.org/1999/xlink" xml:space="preserve" style="fill-rule:evenodd;clip-rule:evenodd;stroke-linejoin:round;stroke-miterlimit:1.41421;"><g><g><path d="M18.975,6.813l-15.948,0l0,63.505l15.948,0l0,-26.944l27.544,0l0,26.944l15.946,0l0,-63.505l-15.946,0l0,24.183l-27.544,0l0,-24.183Z" style="fill:none;"/><path d="M76.859,27.854l0,42.464l14.911,0l0,-42.464l-14.911,0Zm-1.243,-18.09c0,4.475 3.832,7.998 8.699,7.998c4.867,0 8.698,-3.523 8.698,-7.998c0,-4.475 -3.831,-7.998 -8.698,-7.998c-4.867,0 -8.699,3.523 -8.699,7.998Z" style="fill:none;"/><path d="M103.575,63.177c0,4.856 4.142,8.665 9.423,8.665c5.281,0 9.423,-3.809 9.423,-8.665c0,-4.855 -4.142,-8.664 -9.423,-8.664c-5.281,0 -9.423,3.809 -9.423,8.664Z" style="fill:none;"/></g><g><path d="M29.975,6.813l-15.948,0l0,63.505l15.948,0l0,-26.944l27.544,0l0,26.944l15.946,0l0,-63.505l-15.946,0l0,24.183l-27.544,0l0,-24.183Z" style="fill-rule:nonzero;"/><path d="M87.859,27.854l0,42.464l14.911,0l0,-42.464l-14.911,0Zm-1.243,-18.09c0,4.475 3.832,7.998 8.699,7.998c4.867,0 8.698,-3.523 8.698,-7.998c0,-4.475 -3.831,-7.998 -8.698,-7.998c-4.867,0 -8.699,3.523 -8.699,7.998Z" style="fill-rule:nonzero;"/></g></g></svg>