<?xml version="1.0" encoding="UTF-8" standalone="no"?><!DOCTYPE svg PUBLIC "-//W3C//DTD SVG 1.1//EN" "http://www.w3.org/Graphics/SVG/1.1/DTD/svg11.dtd"><svg width="100%" height="100%" viewBox="0 0 164 30" version="1.1" xmlns="http://www.w3.org/2000/svg" xmlns:xlink="http://www.w3.org/1999/xlink" xml:space="preserve" style="fill-rule:evenodd;clip-rule:evenodd;stroke-linejoin:round;stroke-miterlimit:1.41421;"><path d="M18.489,6.554c-2.823,-2.1 -5.502,-2.389 -7.167,-2.389c-2.245,0 -4.272,0.47 -5.973,2.208c-1.448,1.484 -2.1,3.294 -2.1,5.43c0,1.158 0.181,2.86 1.448,4.199c0.941,1.014 2.245,1.52 3.367,1.919l1.991,0.687c0.688,0.254 2.172,0.797 2.823,1.34c0.507,0.434 0.833,0.941 0.833,1.737c0,0.905 -0.398,1.557 -0.869,1.955c-0.796,0.688 -1.81,0.833 -2.534,0.833c-1.122,0 -2.099,-0.29 -3.041,-0.869c-0.651,-0.398 -1.629,-1.231 -2.244,-1.846l-2.896,3.982c0.905,0.905 2.317,2.027 3.548,2.642c1.52,0.761 3.04,1.014 4.778,1.014c1.593,0 4.706,-0.217 6.842,-2.462c1.267,-1.303 2.136,-3.475 2.136,-5.973c0,-1.411 -0.362,-3.149 -1.774,-4.488c-0.941,-0.905 -2.245,-1.448 -3.294,-1.847l-1.81,-0.687c-1.629,-0.616 -2.462,-0.833 -3.041,-1.376c-0.362,-0.326 -0.543,-0.76 -0.543,-1.339c0,-0.616 0.253,-1.159 0.615,-1.521c0.652,-0.724 1.593,-0.832 2.353,-0.832c0.688,0 2.245,0.108 4.055,1.737l2.497,-4.054l0,0Z" style="fill:#fff;fill-rule:nonzero;"/><path d="M27.503,18.572c0.145,-0.724 0.507,-1.303 0.905,-1.737c0.507,-0.507 1.303,-1.05 2.643,-1.05c1.05,0 1.882,0.362 2.461,0.905c0.761,0.724 1.014,1.737 1.05,1.882l-7.059,0l0,0Zm11.874,2.57c0,-1.991 -0.362,-4.525 -2.281,-6.552c-1.991,-2.099 -4.597,-2.425 -6.407,-2.425c-1.81,0 -4.236,0.362 -6.19,2.317c-1.629,1.665 -2.462,4.054 -2.462,6.371c0,2.679 1.014,4.814 2.425,6.226c1.883,1.883 4.019,2.317 6.444,2.317c1.81,0 3.548,-0.253 5.104,-1.195c0.941,-0.579 2.389,-1.773 3.113,-4.054l-4.923,-0.507c-0.434,0.905 -1.05,1.303 -1.122,1.34c-0.543,0.325 -1.339,0.47 -2.1,0.47c-0.796,0 -1.882,-0.145 -2.678,-1.013c-0.652,-0.724 -0.978,-1.883 -0.978,-2.752l12.055,0l0,-0.543l0,0Z" style="fill:#fff;fill-rule:nonzero;"/><path d="M42.78,2.463l0,26.39l5.212,0l0,-1.955c0.797,1.159 2.245,2.498 5.105,2.498c2.389,0 4.126,-0.76 5.538,-2.208c1.665,-1.665 2.534,-3.982 2.534,-6.48c0,-2.679 -0.977,-4.887 -2.534,-6.371c-1.412,-1.34 -3.403,-2.172 -5.611,-2.172c-1.774,0 -3.728,0.579 -5.032,2.353l0,-12.055l-5.212,0l0,0Zm8.977,14.191c1.05,0 1.955,0.289 2.788,1.086c0.76,0.724 1.267,1.773 1.267,3.077c0,1.194 -0.507,2.244 -1.267,2.968c-0.797,0.76 -1.81,1.122 -2.715,1.122c-0.978,0 -2.136,-0.398 -2.969,-1.194c-0.615,-0.58 -1.194,-1.557 -1.194,-2.896c0,-1.376 0.543,-2.317 1.158,-2.969c0.833,-0.869 1.81,-1.194 2.932,-1.194l0,0Z" style="fill:#fff;fill-rule:nonzero;"/><path d="M76.808,14.518c-1.485,-2.027 -3.693,-2.353 -5.068,-2.353c-2.245,0 -4.2,0.796 -5.611,2.208c-1.485,1.484 -2.498,3.801 -2.498,6.516c0,2.136 0.651,4.235 2.353,6.045c1.774,1.883 3.728,2.462 6.045,2.462c1.34,0 3.367,-0.326 4.779,-2.498l0,1.955l5.212,0l0,-16.145l-5.212,0l0,1.81Zm-3.765,2.136c0.941,0 2.099,0.362 2.896,1.122c0.76,0.724 1.194,1.81 1.194,2.968c0,1.376 -0.579,2.389 -1.267,3.041c-0.687,0.688 -1.665,1.122 -2.715,1.122c-1.23,0 -2.353,-0.507 -3.077,-1.267c-0.47,-0.507 -1.086,-1.448 -1.086,-2.896c0,-1.448 0.652,-2.389 1.195,-2.932c0.688,-0.688 1.738,-1.158 2.86,-1.158Z" style="fill:#fff;fill-rule:nonzero;"/><path d="M98.021,13.54c-1.303,-0.76 -2.969,-1.375 -5.358,-1.375c-1.484,0 -3.439,0.289 -4.887,1.629c-0.941,0.869 -1.556,2.172 -1.556,3.728c0,1.231 0.398,2.136 1.158,2.933c0.688,0.687 1.665,1.194 2.606,1.484l1.304,0.398c0.76,0.217 1.23,0.362 1.592,0.579c0.471,0.29 0.58,0.652 0.58,0.941c0,0.399 -0.218,0.797 -0.543,1.05c-0.471,0.362 -1.304,0.362 -1.629,0.362c-0.688,0 -1.448,-0.145 -2.172,-0.507c-0.543,-0.253 -1.267,-0.76 -1.774,-1.194l-2.208,3.511c2.099,1.846 4.452,2.317 6.624,2.317c1.702,0 3.656,-0.253 5.249,-1.846c0.724,-0.724 1.665,-2.1 1.665,-4.236c0,-1.23 -0.325,-2.208 -1.267,-3.077c-0.832,-0.76 -1.773,-1.122 -2.678,-1.411l-1.376,-0.435c-0.652,-0.217 -1.195,-0.326 -1.557,-0.543c-0.253,-0.145 -0.506,-0.362 -0.506,-0.724c0,-0.253 0.144,-0.543 0.325,-0.724c0.326,-0.326 0.942,-0.47 1.485,-0.47c1.013,0 2.063,0.434 2.859,0.905l2.064,-3.295l0,0Z" style="fill:#fff;fill-rule:nonzero;"/><path d="M110.365,16.907l0,-4.199l-3.222,0l0,-5.213l-5.213,0l0,5.213l-1.81,0l0,4.199l1.81,0l0,11.946l5.213,0l0,-11.946l3.222,0Z" style="fill:#fff;fill-rule:nonzero;"/><path d="M112.971,12.708l0,16.145l5.213,0l0,-16.145l-5.213,0l0,0Zm-0.434,-6.878c0,1.701 1.339,3.041 3.041,3.041c1.701,0 3.041,-1.34 3.041,-3.041c0,-1.702 -1.34,-3.041 -3.041,-3.041c-1.702,0 -3.041,1.339 -3.041,3.041Z" style="fill:#fff;fill-rule:nonzero;"/><path d="M134.981,14.518c-1.484,-2.027 -3.692,-2.353 -5.068,-2.353c-2.244,0 -4.199,0.796 -5.611,2.208c-1.484,1.484 -2.498,3.801 -2.498,6.516c0,2.136 0.652,4.235 2.353,6.045c1.774,1.883 3.729,2.462 6.046,2.462c1.339,0 3.366,-0.326 4.778,-2.498l0,1.955l5.213,0l0,-16.145l-5.213,0l0,1.81Zm-3.765,2.136c0.941,0 2.1,0.362 2.896,1.122c0.76,0.724 1.195,1.81 1.195,2.968c0,1.376 -0.579,2.389 -1.267,3.041c-0.688,0.688 -1.665,1.122 -2.715,1.122c-1.231,0 -2.353,-0.507 -3.077,-1.267c-0.471,-0.507 -1.086,-1.448 -1.086,-2.896c0,-1.448 0.651,-2.389 1.194,-2.932c0.688,-0.688 1.738,-1.158 2.86,-1.158Z" style="fill:#fff;fill-rule:nonzero;"/><path d="M144.248,28.853l5.213,0l0,-8.29c0,-1.05 0.145,-2.208 1.013,-3.077c0.399,-0.434 1.086,-0.869 2.172,-0.869c0.942,0 1.593,0.326 1.991,0.724c0.833,0.833 0.869,2.172 0.869,3.222l0,8.29l5.213,0l0,-10.208c0,-1.304 -0.109,-3.222 -1.629,-4.743c-1.376,-1.375 -3.222,-1.629 -4.634,-1.629c-1.52,0 -3.402,0.326 -4.995,2.353l0,-1.918l-5.213,0l0,16.145Z" style="fill:#fff;fill-rule:nonzero;"/></svg>