<?xml version="1.0" encoding="UTF-8" standalone="no"?><!DOCTYPE svg PUBLIC "-//W3C//DTD SVG 1.1//EN" "http://www.w3.org/Graphics/SVG/1.1/DTD/svg11.dtd"><svg width="100%" height="100%" viewBox="0 0 82 30" version="1.1" xmlns="http://www.w3.org/2000/svg" xmlns:xlink="http://www.w3.org/1999/xlink" xml:space="preserve" style="fill-rule:evenodd;clip-rule:evenodd;stroke-linejoin:round;stroke-miterlimit:1.41421;"><path d="M1.326,4.708l8.217,24.145l4.706,0l5.068,-14.661l5.068,14.661l4.706,0l8.217,-24.145l-5.792,0l-5.14,16l-5.14,-16l-3.838,0l-5.14,16l-5.14,-16l-5.792,0Z" style="fill-rule:nonzero;"/><path d="M56.531,20.78c0,-2.063 -0.797,-4.38 -2.426,-6.009c-1.448,-1.448 -3.909,-2.606 -7.059,-2.606c-3.149,0 -5.611,1.158 -7.059,2.606c-1.629,1.629 -2.425,3.946 -2.425,6.009c0,2.064 0.796,4.381 2.425,6.01c1.448,1.448 3.91,2.606 7.059,2.606c3.15,0 5.611,-1.158 7.059,-2.606c1.629,-1.629 2.426,-3.946 2.426,-6.01Zm-9.485,-4.199c1.195,0 2.172,0.398 2.932,1.159c0.761,0.76 1.195,1.737 1.195,3.04c0,1.304 -0.434,2.281 -1.195,3.041c-0.76,0.76 -1.737,1.159 -2.896,1.159c-1.375,0 -2.316,-0.507 -2.968,-1.159c-0.615,-0.615 -1.195,-1.556 -1.195,-3.041c0,-1.303 0.435,-2.28 1.195,-3.04c0.76,-0.761 1.738,-1.159 2.932,-1.159Z" style="fill-rule:nonzero;"/><rect x="59.933" y="2.463" width="5.213" height="26.39" style="fill-rule:nonzero;"/><path d="M79.119,16.907l0,-4.199l-4.126,0l0,-2.715c0,-0.76 0,-2.027 0.579,-2.788c0.217,-0.289 0.724,-0.651 1.52,-0.651c0.652,0 1.412,0.253 1.991,0.615l0,-4.561c-0.869,-0.326 -1.81,-0.543 -2.968,-0.543c-1.991,0 -3.475,0.724 -4.525,1.846c-1.629,1.738 -1.81,3.801 -1.81,5.611l0,3.186l-1.883,0l0,4.199l1.883,0l0,11.946l5.213,0l0,-11.946l4.126,0Z" style="fill-rule:nonzero;"/><g><clipPath id="_clip1"><rect x="5353.48" y="12533.3" width="1548.67" height="267.404"/></clipPath><g clip-path="url(#_clip1)"></g></g></svg>
